<?xml version="1.0" encoding="UTF-8" standalone="no"?>
<!-- Created with Inkscape (http://www.inkscape.org/) -->

<svg
   xmlns:dc="http://purl.org/dc/elements/1.1/"
   xmlns:cc="http://creativecommons.org/ns#"
   xmlns:rdf="http://www.w3.org/1999/02/22-rdf-syntax-ns#"
   xmlns:svg="http://www.w3.org/2000/svg"
   xmlns="http://www.w3.org/2000/svg"
   xmlns:sodipodi="http://sodipodi.sourceforge.net/DTD/sodipodi-0.dtd"
   xmlns:inkscape="http://www.inkscape.org/namespaces/inkscape"
   width="1200"
   height="500"
   viewBox="0 0 317.50001 132.29166"
   version="1.1"
   id="svg8"
   inkscape:version="0.92.3 (2405546, 2018-03-11)"
   sodipodi:docname="poiment-home.svg">
  <defs
     id="defs2" />
  <sodipodi:namedview
     id="base"
     pagecolor="#ffffff"
     bordercolor="#666666"
     borderopacity="1.0"
     inkscape:pageopacity="0.0"
     inkscape:pageshadow="2"
     inkscape:zoom="0.35"
     inkscape:cx="551.79601"
     inkscape:cy="105.93052"
     inkscape:document-units="mm"
     inkscape:current-layer="layer1"
     showgrid="false"
     units="px"
     inkscape:window-width="1323"
     inkscape:window-height="713"
     inkscape:window-x="1323"
     inkscape:window-y="27"
     inkscape:window-maximized="1" />
  <metadata
     id="metadata5">
    <rdf:RDF>
      <cc:Work
         rdf:about="">
        <dc:format>image/svg+xml</dc:format>
        <dc:type
           rdf:resource="http://purl.org/dc/dcmitype/StillImage" />
        <dc:title></dc:title>
      </cc:Work>
    </rdf:RDF>
  </metadata>
  <g
     inkscape:label="Layer 1"
     inkscape:groupmode="layer"
     id="layer1"
     transform="translate(0,-164.70832)">
    <path
       style="fill:#000000;stroke-width:0.34113109"
       d="m 266.60182,291.36141 c 2.36405,-0.1495 2.77321,-0.58234 2.72147,-2.87895 -0.0317,-1.40797 -0.31297,-2.21151 -1.40902,-4.0255 -0.75316,-1.24655 -1.36938,-2.52016 -1.36938,-2.83027 0,-0.31013 0.28656,-1.29869 0.63681,-2.19685 0.35024,-0.89814 0.74577,-2.40053 0.87895,-3.33865 0.31995,-2.25378 3.7329,-19.70492 4.87024,-24.90257 0.75282,-3.44043 1.05142,-4.23958 1.87141,-5.00852 0.53662,-0.50321 1.58813,-2.26857 2.3367,-3.923 0.74857,-1.65444 1.64866,-3.54536 2.00019,-4.20204 l 0.63915,-1.19396 18.65142,-0.0882 c 17.51763,-0.0829 18.64447,-0.12427 18.53695,-0.68227 -0.10714,-0.55612 -1.32257,-0.59403 -19.04252,-0.59403 h -18.92802 l 0.0141,-4.43472 c 0.0115,-3.5949 0.12444,-4.60092 0.59667,-5.31247 2.44515,-3.68433 5.05248,-17.59371 4.01357,-21.4112 -0.49345,-1.81313 -4.69159,-6.33676 -8.34708,-8.99423 -4.20644,-3.05802 -4.24992,-3.11446 -3.83297,-4.97715 0.19762,-0.88286 0.60766,-1.78645 0.91119,-2.00795 0.30353,-0.2215 1.07241,-1.52633 1.70862,-2.89962 0.98268,-2.12111 1.15877,-2.8819 1.17009,-5.05535 0.0297,-5.69874 -2.43703,-8.34052 -8.19448,-8.77595 -3.40839,-0.25777 -4.59962,0.0451 -6.39628,1.62665 -2.27661,2.00396 -2.69665,3.39703 -2.52146,8.36242 0.0791,2.24092 0.3857,5.45599 0.6814,7.1446 0.2957,1.6886 0.42117,3.18885 0.27881,3.33391 -0.14236,0.14505 -2.05729,0.5665 -4.2554,0.93652 -5.05354,0.85074 -7.01432,1.32146 -7.96642,1.91256 -0.41555,0.25797 -0.97315,0.46907 -1.23911,0.46907 -1.39442,0 -6.25343,6.53477 -8.74898,11.76632 -3.89829,8.17215 -4.29631,13.65384 -1.20152,16.54754 0.814,0.76112 1.20264,0.85283 3.61355,0.85283 1.93574,0 2.70167,0.12107 2.7022,0.42713 10e-4,0.65743 -3.8681,3.35463 -6.77377,4.72191 -1.43363,0.6746 -3.13473,1.48064 -3.78023,1.7912 -0.69151,0.33269 -2.13276,1.7777 -3.50846,3.51761 -1.28415,1.62412 -2.5723,3.04409 -2.86255,3.15545 -0.29024,0.11139 -4.03076,0.20252 -8.31224,0.20252 h -7.78452 l -0.90158,-1.10867 c -0.49588,-0.60978 -1.39368,-1.78606 -1.99511,-2.61396 -1.38473,-1.90613 -3.88647,-3.63302 -6.26477,-4.32441 -1.01722,-0.2957 -2.26543,-0.90388 -2.77382,-1.35149 l -0.92434,-0.81384 1.91061,-0.0107 c 3.81939,-0.0216 5.08545,-1.14667 5.07925,-4.51381 -0.003,-1.20903 -0.28714,-2.41756 -0.8601,-3.64839 -0.4712,-1.01226 -0.76798,-2.12018 -0.65948,-2.46204 0.35328,-1.11306 0.23429,-4.06439 -0.18419,-4.56862 -0.22453,-0.27054 -0.94165,-0.59197 -1.59358,-0.71427 -1.13524,-0.21297 -1.27715,-0.41557 -3.35693,-4.79253 -2.3016,-4.84374 -5.81244,-10.23333 -7.80679,-11.98439 -1.00846,-0.88542 -1.58875,-1.09297 -3.61388,-1.29254 -1.53871,-0.15161 -2.70426,-0.46721 -3.21803,-0.87133 -0.80218,-0.63101 -0.80319,-0.64102 -0.24438,-2.42863 0.30861,-0.98725 0.99525,-2.3622 1.52583,-3.05539 1.25612,-1.64116 2.60085,-5.48561 2.60998,-7.46171 0.009,-2.16187 -0.88881,-4.58349 -2.07007,-5.57745 -0.5461,-0.45951 -0.99292,-0.97818 -0.99292,-1.15263 0,-0.69801 -1.5602,-2.23628 -2.87279,-2.83244 -1.84213,-0.83666 -6.57635,-0.88944 -8.25667,-0.0921 -1.58913,0.75411 -3.51623,3.02259 -4.92421,5.79654 -1.10566,2.17834 -1.16737,2.48375 -1.12471,5.56688 0.0249,1.79416 0.29218,4.64369 0.59411,6.3323 0.64917,3.63079 0.68454,5.59886 0.11385,6.33595 -0.22857,0.29522 -1.1458,0.96283 -2.03828,1.4836 -2.24697,1.31112 -3.86202,3.30731 -4.39267,5.42934 -0.69351,2.77327 -0.47692,8.32214 0.51477,13.18876 1.09442,5.3708 1.94097,7.83034 3.26011,9.47182 l 1.04041,1.29468 -0.71822,3.742 c -0.39502,2.05812 -0.81581,4.89082 -0.93505,6.29493 l -0.21684,2.55293 -1.41849,0.78138 c -2.843,1.56612 -9.57438,2.58233 -19.77027,2.98466 l -5.49672,0.21691 -0.40323,-1.6013 c -0.49329,-1.95906 -1.74421,-4.48001 -2.91124,-5.86694 l -0.87104,-1.03517 1.03502,-2.2118 c 0.92258,-1.9715 1.09139,-2.85579 1.55377,-8.13872 0.28529,-3.2598 0.54354,-7.99927 0.57385,-10.53216 0.0523,-4.36772 0.007,-4.71013 -0.88576,-6.63769 -1.04581,-2.25901 -2.46574,-4.27853 -3.00831,-4.27853 -0.19479,0 -1.00175,-0.65241 -1.79321,-1.44979 -0.83238,-0.83862 -3.25132,-2.43507 -5.73808,-3.78702 -2.36449,-1.28545 -4.71134,-2.7675 -5.21521,-3.29342 l -0.91613,-0.95623 0.74967,-0.74968 c 2.15777,-2.15778 3.23581,-7.28294 2.24718,-10.68365 -1.30524,-4.48984 -5.03943,-6.56939 -10.5583,-5.87986 -3.91462,0.48911 -5.62236,2.82339 -5.94508,8.12626 -0.28553,4.69171 -0.2142,5.54556 0.60456,7.23689 0.74506,1.53905 1.77957,2.06074 2.15361,1.08601 0.27026,-0.70429 -0.0729,-4.64862 -0.46883,-5.38835 -0.42544,-0.79495 0.16992,-2.80975 1.16728,-3.95033 1.02485,-1.17202 3.71242,-1.92061 6.11355,-1.70289 3.00596,0.27258 3.16105,0.52968 3.0871,5.11771 -0.034,2.1027 -0.23478,4.59062 -0.44637,5.52872 -0.80527,3.56988 -3.55395,6.34633 -5.74655,5.80463 -1.23846,-0.30595 -2.70631,-1.7682 -2.96715,-2.95578 -0.21996,-1.00151 -1.33063,-1.90252 -1.66942,-1.35434 -0.10273,0.16633 0.0228,0.99907 0.27905,1.85056 0.3955,1.31415 0.39482,1.52089 -0.004,1.36768 -0.56393,-0.21639 -5.47275,1.36435 -7.654249,2.46479 -4.28093,2.15956 -7.21593,5.73412 -8.69817,10.5936 -0.64293,2.10783 -2.38506,5.47015 -7.07904,13.66251 l -6.22626,10.86662 -2.54812,0.24798 c -3.33966,0.32496 -7.46864,1.22499 -8.43264,1.83808 -0.99461,0.63257 -1.01333,2.02253 -0.0345,2.54651 0.46091,0.24664 1.88634,0.34079 3.83774,0.2534 1.70746,-0.0764 2.83582,-0.0829 2.50749,-0.0143 -0.69836,0.14591 -0.80266,1.42658 -0.17057,2.09446 0.35266,0.37264 -0.31108,0.41233 -3.83773,0.22959 -2.34527,-0.12159 -5.1265,-0.31113 -6.18053,-0.4213 l -1.91638,-0.20032 0.46659,-1.55036 c 0.65872,-2.18881 0.57199,-4.21659 -0.33163,-7.75283 -0.76909,-3.00974 -0.77801,-3.24563 -0.45261,-11.98072 0.31921,-8.56918 0.30357,-9.03313 -0.40862,-12.11016 -1.13915,-4.92189 -2.01632,-6.52819 -4.39966,-8.05687 -1.10027,-0.7057 -3.08143,-1.80087 -4.40259,-2.43368 l -2.40212,-1.15059 -0.21931,-3.84004 c -0.34548,-6.049 -2.74964,-13.25815 -4.92687,-14.77384 -3.51832,-2.44929 -9.47187,-1.7561 -12.26789,1.42839 -0.97483,1.11028 -1.10523,1.4914 -1.09805,3.20952 0.007,1.96268 0.11256,2.49967 1.27369,6.55491 0.936,3.26895 3.02243,7.04883 4.17158,7.55749 l 0.94776,0.41953 -1.58021,0.74838 c -1.70262,0.80636 -3.94841,3.0015 -6.95293,6.79606 -2.52828,3.19315 -5.2297,5.79525 -5.52327,5.32024 -0.311,-0.50322 -2.68036,-0.47686 -3.19275,0.0356 -0.24397,0.24398 -0.40935,1.42024 -0.40935,2.9116 0,1.69357 -0.17216,2.76501 -0.53269,3.31526 -0.89728,1.36942 -0.71462,3.46633 0.44527,5.11188 0.75564,1.07204 1.17681,2.29 1.63722,4.7344 0.34091,1.81007 0.70735,3.4286 0.81427,3.59671 0.1069,0.16813 2.61259,0.55356 5.5681,0.85652 2.95552,0.30295 5.68336,0.74377 6.06187,0.97959 0.59149,0.36852 0.12416,0.48348 -3.3269,0.81829 -6.00071,0.58219 -9.64074,2.21348 -10.15406,4.55057 -0.43168,1.96547 1.56559,7.6712 3.8578,11.02085 0.54076,0.7902 1.24082,1.82051 1.55573,2.28956 0.31492,0.46905 1.60478,2.38792 2.86635,4.26413 1.26161,1.87623 2.33703,3.5026 2.38985,3.61418 0.0529,0.11152 -1.32874,-0.0877 -3.07016,-0.44291 -2.7083,-0.55237 -4.76979,-0.64859 -14.25301,-0.66516 -9.5708702,-0.0168 -11.10083015,0.0504 -11.18973015,0.49014 -0.1417,0.70118 4.41105995,0.98854 14.08936015,0.8892 6.56027,-0.0674 7.95572,0.0159 11.08674,0.66151 1.97003,0.40618 3.90987,0.73897 4.31071,0.73954 0.82391,9.6e-4 0.8077,-0.0708 1.66552,7.39097 l 0.51619,4.49033 -0.88049,3.75485 -0.88045,3.75484 -2.45102,1.69546 c -3.5822,2.47796 -3.84412,2.83063 -3.34346,4.50175 0.62027,2.07024 1.57699,2.52814 4.74564,2.27131 1.44556,-0.1172 4.4704,-0.52429 6.72187,-0.90471 3.20854,-0.54213 4.22264,-0.84683 4.69056,-1.40922 0.32832,-0.39465 0.59972,-0.89241 0.60308,-1.10615 0.004,-0.21374 1.11632,-0.74087 2.47322,-1.17139 1.35688,-0.43053 3.23463,-1.19808 4.17274,-1.70568 1.61441,-0.8735 1.71168,-1.00497 1.81848,-2.45795 0.16575,-2.25462 -0.59156,-7.80787 -1.27929,-9.38111 -0.61059,-1.39671 -2.68786,-4.00393 -5.84353,-7.33433 -2.0685,-2.18302 -2.10369,-2.29915 -3.05673,-10.09087 -0.3869,-3.16282 -0.79396,-6.1113 -0.90461,-6.55221 -0.19334,-0.77033 -0.14961,-0.79071 1.12092,-0.52224 0.72717,0.15363 3.39449,0.26534 5.92739,0.24823 6.69289,-0.0453 12.25504,-1.30843 11.73446,-2.665 -0.3078,-0.80212 -1.38989,-0.86362 -6.57615,-0.37377 -6.53938,0.61766 -8.91699,0.69085 -11.83334,0.36432 -2.92781,-0.3278 -3.35704,-0.0299 -3.70201,2.57084 -0.34555,2.60481 -3.08249,10.88035 -3.59844,10.88035 -0.26577,0 -1.37542,-6.20224 -1.37542,-7.68777 0,-0.49278 -0.53473,-2.65991 -1.18831,-4.81584 l -1.1883,-3.91988 0.67661,-1.92509 c 0.93265,-2.65356 0.89656,-3.48381 -0.15145,-3.48381 -1.09824,0 -2.07653,1.29909 -2.58994,3.43921 -0.5214,2.17345 -0.27607,3.70034 1.21475,7.56058 1.09645,2.83908 1.551,4.93869 2.00239,9.24927 l 0.17355,1.65746 -1.40652,-1.99859 c -5.2944,-7.52289 -7.60562,-11.87696 -8.2636,-15.56758 -0.20037,-1.12385 -0.10412,-1.4138 0.75307,-2.27111 1.78021,-1.78021 4.75123,-2.41346 12.86736,-2.74259 3.94008,-0.15978 9.69665,-0.6034 12.79244,-0.9858 3.09575,-0.38242 6.51633,-0.79125 7.60129,-0.90853 1.34652,-0.14557 2.26356,-0.46349 2.88922,-1.00166 l 0.91658,-0.78843 0.77077,2.94645 c 0.96494,3.68873 0.97969,5.43781 0.0637,7.56694 -0.39675,0.92228 -0.63789,1.89434 -0.53589,2.16015 0.26984,0.70321 6.47445,1.07464 17.02728,1.0193 7.8686,-0.0412 8.91193,-0.11281 10.08246,-0.69201 l 1.30566,-0.64597 -0.43055,1.20371 c -0.54914,1.5352 -0.57986,5.92207 -0.0574,8.18577 0.33978,1.47206 0.31494,1.99893 -0.15801,3.35204 -0.64501,1.84531 -1.60969,12.64512 -1.60969,18.02083 0,3.48099 0.0185,3.5647 0.85284,3.88195 0.46905,0.17833 0.85282,0.39246 0.85282,0.47583 0,0.15224 -1.99427,0.80879 -4.68499,1.54239 -1.62026,0.44173 -2.01208,0.97915 -2.46845,3.38546 -0.46813,2.4685 -0.0684,3.54529 1.51085,4.06985 1.72133,0.57176 12.3414,0.95324 13.52158,0.48571 0.48719,-0.193 1.13149,-0.8687 1.4318,-1.50153 0.71393,-1.50445 0.72204,-5.92129 0.0129,-7.03535 -0.44906,-0.70552 -0.44599,-0.92145 0.0271,-1.91868 0.69676,-1.4683 1.4146,-4.98105 1.88537,-9.22592 0.20809,-1.87622 0.53541,-4.71615 0.72742,-6.31092 0.19199,-1.59481 0.37466,-3.85906 0.40593,-5.03169 0.0637,-2.38995 -0.16318,-2.24342 3.322369,-2.14537 1.21953,0.0345 4.13621,-0.19198 6.48149,-0.50289 2.72382,-0.3611 5.1075,-0.4846 6.59888,-0.34187 1.9444,0.18608 2.44378,0.1248 2.98698,-0.36683 0.35875,-0.32467 0.712,-0.52726 0.785,-0.45025 0.22037,0.23248 0.84264,8.33293 1.05897,13.7853 0.11166,2.81433 0.36501,5.57748 0.563,6.14036 0.30986,0.88093 0.11745,1.7407 -1.38173,6.17602 -0.95792,2.83396 -1.74168,5.46128 -1.74168,5.83851 0,1.16465 1.2471,2.37298 2.87123,2.78194 0.83845,0.21112 3.14154,0.38385 5.11798,0.38385 3.41996,0 3.61949,-0.0396 4.1317,-0.82135 0.57098,-0.87145 0.77294,-3.61076 0.36067,-4.8926 -0.31133,-0.96803 -0.97461,-0.97252 -2.26918,-0.0154 -0.83902,0.62031 -1.59288,0.77728 -4.30194,0.89578 l -3.28462,0.14363 0.19192,-1.18274 c 0.19105,-1.17723 2.91389,-6.40804 3.33563,-6.40804 0.1217,0 0.8757,0.7761 1.67553,1.72464 1.04801,1.24288 1.65848,1.69551 2.18545,1.62037 0.67368,-0.096 0.73464,-0.31911 0.77441,-2.83329 0.0238,-1.501 0.12622,-2.95931 0.22766,-3.24075 0.10144,-0.28144 0.59138,-2.81433 1.08866,-5.62867 1.75195,-9.91535 1.71147,-9.80142 4.40335,-12.39012 1.68108,-1.61663 2.43536,-3.4007 2.80631,-6.63753 0.12429,-1.0841 0.33828,-2.04054 0.47562,-2.12545 0.13737,-0.0847 3.45454,-0.30242 7.37153,-0.48339 10.47348,-0.48389 16.90918,-1.7051 19.2163,-3.64641 0.66031,-0.55564 1.03909,-0.70781 1.03927,-0.41753 6.8e-4,0.9527 2.01105,4.59534 3.11372,5.64151 0.63258,0.60016 1.91769,1.44308 2.85581,1.87313 3.21281,1.47287 11.08057,0.85667 13.80826,-1.08144 l 0.86037,-0.6113 0.0437,7.38078 c 0.0452,7.62413 0.66056,13.45702 1.6155,15.31146 0.51069,0.99171 0.53749,0.92603 -1.04213,2.55555 -1.7208,1.77518 -1.83194,3.50162 -0.58505,9.08774 1.10409,4.94645 1.86975,6.75822 3.54919,8.39812 1.07202,1.04681 1.63481,1.32069 2.97931,1.44987 1.3924,0.1338 1.81892,0.0263 2.66552,-0.67203 0.81467,-0.67193 1.28794,-0.80269 2.46861,-0.68208 1.89189,0.19326 3.19312,-0.36703 4.01766,-1.72992 0.6072,-1.00364 0.65395,-1.66808 0.56479,-8.02721 l -0.0972,-6.933 1.88436,-5.7313 c 1.0364,-3.1522 2.18983,-7.01753 2.5632,-8.5896 0.37337,-1.57207 1.08127,-4.16263 1.57311,-5.7568 0.68411,-2.21731 0.93627,-3.90059 1.07293,-7.16261 l 0.17866,-4.26413 h 8.86627 8.86628 l 1.28481,-1.44804 1.28482,-1.44803 -0.53261,1.44803 c -0.33455,0.90954 -0.54149,2.65319 -0.55647,4.68878 -0.0285,3.8757 -0.41046,3.05046 6.78879,14.66862 2.84839,4.59675 5.74409,9.43229 6.43488,10.74564 0.6908,1.31337 1.96014,3.30896 2.82077,4.43471 2.03214,2.65811 2.52335,3.84122 2.52335,6.07759 0,1.81947 -0.0121,1.84086 -1.402,2.46757 -2.21853,1.00042 -3.37383,2.26537 -3.37383,3.69399 0,2.10341 0.92939,2.42948 6.92451,2.42948 h 5.07908 l 0.79092,-0.99148 c 1.00764,-1.26318 1.7978,-3.83136 2.08562,-6.77861 0.21357,-2.1871 0.25849,-2.28241 0.8313,-1.76402 0.56556,0.51183 0.56939,0.63068 0.0581,1.80031 -0.40347,0.92301 -0.55291,2.39348 -0.56831,5.5921 -0.0191,3.9737 0.0397,4.40044 0.69786,5.05871 0.72172,0.72188 4.12147,1.39257 6.445,1.27147 0.56286,-0.0294 1.89331,-0.10829 2.95655,-0.17558 z m -4.41537,-0.67899 c 0.69862,-0.0732 1.92669,-0.0742 2.72905,-0.003 0.80235,0.0722 0.23075,0.13205 -1.27023,0.13328 -1.50098,9.6e-4 -2.15744,-0.0577 -1.45882,-0.13102 z m -3.50814,-1.12756 c -0.6541,-0.35006 -1.00371,-1.76128 -1.00086,-4.03992 0.002,-1.751 0.55219,-5.48635 0.85195,-5.78612 0.10575,-0.10571 1.64549,0.17749 3.42162,0.62941 2.74987,0.69969 3.23026,0.92508 3.23552,1.51808 0.003,0.383 0.46393,1.52683 1.0234,2.54181 0.55946,1.01499 1.01721,1.89766 1.01721,1.9615 0,0.24501 -1.9179,0.099 -3.79681,-0.28911 -2.55157,-0.52703 -3.80742,-0.0633 -3.64518,1.34616 l 0.10768,0.93523 3.95979,-0.11655 c 3.19976,-0.0941 3.99578,-0.0228 4.14729,0.37207 0.30652,0.79877 -0.18745,1.21916 -1.63002,1.38716 -1.87715,0.21863 -6.99571,-0.0874 -7.69159,-0.45972 z m 10.02146,-0.73522 c 0.1089,-0.27214 0.18973,-0.19131 0.2061,0.2061 0.0148,0.35959 -0.0658,0.5611 -0.17917,0.44773 -0.11335,-0.11332 -0.12547,-0.40757 -0.0269,-0.65383 z m -11.59845,-1.36453 c 0.10889,-0.27212 0.18973,-0.19129 0.20609,0.20611 0.0148,0.35961 -0.0658,0.56109 -0.17916,0.44774 -0.11336,-0.11336 -0.12548,-0.40759 -0.0269,-0.65385 z m -67.44645,-0.63329 c -0.65047,-0.57112 -1.48905,-1.68405 -1.86354,-2.47319 -1.12486,-2.37049 -3.09437,-12.27063 -2.27886,-11.45509 0.0863,0.0863 0.54609,2.00048 1.02185,4.25386 1.33349,6.3157 1.78937,7.64263 2.62573,7.64263 0.61183,0 0.68083,-0.15026 0.50911,-1.10868 -0.10928,-0.60976 -0.35634,-2.35531 -0.54907,-3.87898 -0.19275,-1.52366 -0.66042,-4.27681 -1.03927,-6.11808 -0.37886,-1.84126 -0.56671,-3.46985 -0.41747,-3.61911 0.14924,-0.14923 0.86524,-0.1074 1.59111,0.093 0.72588,0.20043 1.66836,0.29776 2.09441,0.21633 0.84779,-0.16206 0.81707,-0.30222 1.36586,6.22833 0.11825,1.40715 0.50597,4.17033 0.86162,6.14035 l 0.64659,3.58187 -0.87076,0.76755 c -1.18545,1.04491 -2.29103,0.9639 -3.69731,-0.27084 z m 61.29037,-0.19112 c 0.11336,-0.11332 0.40759,-0.12544 0.65384,-0.0269 0.27213,0.10896 0.1913,0.18973 -0.2061,0.2061 -0.35961,0.0149 -0.56109,-0.066 -0.44774,-0.17917 z m -55.1319,-2.43765 c -0.11844,-1.26645 -0.60019,-4.29825 -1.07051,-6.73733 -0.47034,-2.43911 -0.856,-5.1926 -0.85702,-6.11891 l -0.002,-1.68419 0.9381,0.89232 c 1.15975,1.10312 2.49627,1.45971 3.78597,1.01014 l 0.98366,-0.34291 0.22961,6.02138 c 0.29851,7.82785 -0.11407,9.22446 -2.73289,9.25128 l -1.0597,0.0107 -0.21537,-2.30264 z m 48.44306,1.73772 c -2.38122,-0.39341 -1.86466,-1.83461 1.21785,-3.39778 1.90236,-0.9647 2.12774,-1.55766 1.88446,-4.95777 -0.14309,-1.99994 -0.34428,-2.6139 -1.24858,-3.81029 -1.67008,-2.20953 -3.18836,-4.5731 -4.97009,-7.73712 -0.89806,-1.59477 -3.58833,-6.04654 -5.97838,-9.8928 -6.27984,-10.10601 -6.31844,-10.18884 -6.279,-13.47467 0.0492,-4.0954 0.97643,-6.20328 3.72698,-8.47205 2.39521,-1.97567 6.33265,-4.33195 8.69154,-5.20125 l 1.53509,-0.56571 3.20421,1.9532 c 4.07254,2.48251 7.4886,3.93673 9.81056,4.17637 1.00344,0.10358 1.82444,0.23637 1.82444,0.2951 0,0.0588 -0.14002,0.45941 -0.31115,0.89038 -0.17113,0.43098 -0.64495,1.65508 -1.05293,2.72024 -0.89842,2.34563 -1.46259,2.66747 -6.78003,3.8678 -4.64986,1.04966 -5.32896,1.05312 -6.54062,0.0336 -1.13797,-0.95754 -4.05585,-1.7389 -5.31423,-1.42309 -0.69232,0.17378 -0.85157,0.38912 -0.73577,0.99493 l 0.1478,0.77316 -2.22009,-0.80586 c -3.68641,-1.33809 -5.54232,-0.67024 -3.48306,1.25342 1.66171,1.55227 3.84378,2.42857 7.18554,2.88566 4.31239,0.58985 4.56569,0.83154 6.30507,6.0161 2.36189,7.04001 5.82298,15.00829 7.38687,17.0064 0.89933,1.149 0.79756,1.64461 -0.47191,2.29821 -2.05162,1.05629 -4.00829,2.88781 -4.00829,3.75196 0,0.68903 0.16755,0.81123 1.10867,0.80843 0.80022,-0.003 1.75405,-0.48801 3.42829,-1.74553 1.27578,-0.95824 2.40894,-1.65292 2.51812,-1.54375 0.31416,0.31417 0.15482,5.81465 -0.24003,8.28634 -0.41322,2.58665 -1.41457,4.77601 -2.28861,5.00376 -0.93905,0.24471 -6.59437,0.25358 -8.05272,0.0129 z M 27.504341,285.60731 c 0.11335,-0.11332 0.40759,-0.12545 0.65386,-0.0269 0.27212,0.10893 0.19128,0.1897 -0.20611,0.20608 -0.35962,0.0149 -0.56109,-0.066 -0.44775,-0.17917 z m 56.96892,-1.0234 c 0.11332,-0.11331 0.40759,-0.12543 0.65384,-0.0269 0.27213,0.10894 0.19128,0.18972 -0.2061,0.2061 -0.35962,0.0149 -0.5611,-0.0658 -0.44774,-0.17918 z m -58.25349,-0.81387 -0.52746,-1.02 2.30963,-1.7039 c 1.27031,-0.93716 2.47774,-1.70624 2.68318,-1.70906 0.20545,-0.003 0.66562,0.31759 1.0226,0.71204 1.56324,1.72737 3.9272,2.189 4.62514,0.90319 0.22913,-0.42216 0.972,-2.49806 1.65082,-4.61314 l 1.23418,-3.84559 0.78796,0.83875 c 0.77433,0.82424 0.78238,0.91022 0.46534,4.96512 -0.17865,2.28518 -0.50244,4.30622 -0.72564,4.52941 -0.45072,0.45072 -8.88562,1.88115 -11.38669,1.93104 -1.45873,0.0292 -1.66163,-0.0645 -2.13906,-0.98786 z m 168.010539,-0.41912 c -0.003,-0.13481 0.21534,-0.1605 0.48494,-0.0571 0.26958,0.10336 0.40173,0.41852 0.29365,0.70016 -0.15985,0.41656 -0.2503,0.42719 -0.48494,0.0571 -0.15863,-0.25026 -0.29078,-0.56533 -0.29365,-0.70016 z m -113.509489,0.89187 c 0.11333,-0.11332 0.40758,-0.12544 0.65382,-0.0269 0.27213,0.10895 0.19132,0.18974 -0.20609,0.2061 -0.3596,0.0149 -0.56109,-0.066 -0.44773,-0.17918 z m 38.354819,-0.91066 c -1.73951,-1.13975 -1.18936,-1.45141 2.33524,-1.3229 2.33628,0.0852 3.73035,-0.0355 4.92547,-0.42641 0.9168,-0.29988 1.76018,-0.54523 1.87415,-0.54523 0.21654,0 -0.13073,2.3437 -0.42228,2.8498 -0.0924,0.16024 -1.88276,0.2369 -3.97881,0.17036 -2.92333,-0.0929 -4.02594,-0.26181 -4.73377,-0.72562 z m -38.168439,0.22674 c -0.50337,-0.1123 -0.99103,-0.40171 -1.08368,-0.64318 -0.12752,-0.33229 0.16152,-0.30942 1.18872,0.0941 1.23818,0.48639 1.63226,0.48298 4.49496,-0.0389 1.7258,-0.3146 4.40425,-0.86166 5.95213,-1.21568 2.39805,-0.54847 2.81435,-0.57014 2.81435,-0.14651 0,0.61267 -0.65362,1.89011 -1.15974,2.26662 -0.3978,0.29592 -10.65333,0.0301 -12.20674,-0.31642 z m 176.194119,-0.53846 c 0.10889,-0.27211 0.18973,-0.1913 0.20609,0.2061 0.0148,0.3596 -0.0658,0.56109 -0.17916,0.44774 -0.11336,-0.11334 -0.12548,-0.40758 -0.0269,-0.65384 z M 79.027501,281.81163 c 0.0866,-0.33191 0.16294,-0.14295 0.16989,0.41992 0.007,0.56285 -0.0637,0.83442 -0.15726,0.60347 -0.0934,-0.23095 -0.0991,-0.69148 -0.0129,-1.02339 z m 49.805149,-0.68227 c 0.0865,-0.33191 0.16294,-0.14294 0.16989,0.41992 0.007,0.56286 -0.0637,0.83443 -0.15725,0.60346 -0.0934,-0.23094 -0.0991,-0.69147 -0.0129,-1.02338 z m -46.413289,0.69647 c 0.32834,-0.0859 0.86562,-0.0859 1.19395,0 0.32835,0.086 0.0597,0.15602 -0.59696,0.15602 -0.65668,0 -0.92531,-0.0701 -0.59699,-0.15602 z m 35.785949,-2.27216 c 0.55862,-1.07512 0.58895,-1.07218 0.55693,0.054 -0.0201,0.70873 -0.17039,0.97396 -0.48364,0.85377 -0.35222,-0.13516 -0.36869,-0.3393 -0.0733,-0.90782 z M 42.080591,278.7325 v -1.96396 l 1.48689,0.11823 c 1.87785,0.14935 2.00176,-0.12507 1.942,-4.30072 -0.0486,-3.39858 0.21953,-5.53487 0.69478,-5.53487 1.38555,0 3.22534,10.3398 1.97705,11.11128 -0.34762,0.21483 -5.81725,2.51322 -6.01544,2.52773 -0.047,0.004 -0.0852,-0.87753 -0.0852,-1.95772 z m 151.669299,1.08324 c -0.11389,-0.29677 -0.2024,-1.02596 -0.19669,-1.62038 0.0121,-1.26983 0.45411,-0.71035 0.83041,1.05129 0.24291,1.13721 -0.24692,1.57707 -0.63372,0.56909 z M 80.251681,279.58777 c 0.22725,-0.6151 0.84601,-0.91098 3.11596,-1.48983 2.83017,-0.72172 3.74227,-1.34831 3.74227,-2.57082 0,-0.53898 0.24861,-0.58187 2.30265,-0.39713 1.35091,0.12145 2.66018,0.45677 3.16769,0.8112 0.94929,0.66295 1.9304,2.2441 1.59843,2.57605 -0.59147,0.59147 -7.54734,1.75563 -10.72492,1.79496 -3.47872,0.0429 -3.48504,0.0416 -3.20208,-0.72443 z m -47.05912,-0.17314 -1.05282,-0.94066 0.93511,-3.31052 0.93512,-3.31049 2.1627,-0.86579 c 1.18947,-0.47618 2.2038,-0.86579 2.25409,-0.86579 0.15946,0 -2.71816,8.70972 -3.1349,9.48839 -0.51874,0.96929 -0.82832,0.9405 -2.0993,-0.19514 z m 228.871499,0.0846 -1.14784,-0.51484 1.36453,0.21745 c 0.75049,0.11964 1.59478,0.34658 1.87622,0.50446 0.93909,0.52673 -0.85189,0.34955 -2.09291,-0.20707 z m 0.67077,-1.03521 c -2.98452,-0.77335 -4.69088,-1.51393 -5.05471,-2.19374 -0.63761,-1.19138 -0.75682,-5.13867 -0.35096,-11.62126 0.22858,-3.65085 0.44997,-11.08969 0.49199,-16.53072 0.0727,-9.42248 0.11241,-9.96986 0.83415,-11.51317 0.70416,-1.50577 0.84728,-1.62039 2.02343,-1.62039 1.62189,0 6.82301,1.42627 8.22829,2.25639 2.0188,1.19254 4.25408,7.70315 3.47037,10.10802 -0.40449,1.24124 -4.46325,21.48608 -5.31772,26.52454 -0.68226,4.02297 -1.19235,5.5329 -1.79148,5.30299 -0.24799,-0.0952 -1.38801,-0.41586 -2.53336,-0.71266 z m -75.17584,0.50395 c -0.36713,-0.59407 0.051,-0.71988 0.51889,-0.15613 0.26907,0.3242 0.29495,0.51995 0.0687,0.51995 -0.19952,0 -0.46396,-0.16372 -0.58764,-0.36382 z m 72.33626,-0.3145 c -0.11951,-0.19338 0.0174,-0.25057 0.32099,-0.13408 0.59098,0.22679 0.69911,0.47129 0.20842,0.47129 -0.17655,0 -0.41479,-0.15174 -0.52941,-0.33721 z m -59.42507,-1.27667 c 0.0864,-0.3319 0.16293,-0.14292 0.1699,0.41992 0.007,0.56287 -0.0637,0.83445 -0.15727,0.60347 -0.0934,-0.23095 -0.0991,-0.69147 -0.0126,-1.02339 z m -81.29395,-0.20946 c 0,-0.0647 0.3454,-0.41013 0.76756,-0.76753 l 0.76754,-0.64986 -0.64985,0.76754 c -0.61069,0.7213 -0.88525,0.92283 -0.88525,0.64985 z m 136.45246,-2.48244 c 0,-1.36299 0.0694,-1.51927 0.5117,-1.1522 0.28143,0.23357 0.50934,0.59776 0.50647,0.80932 -0.003,0.21155 -0.15403,0.15438 -0.33591,-0.12714 -0.24597,-0.38059 -0.33202,-0.18399 -0.33591,0.76757 -0.003,0.70358 -0.082,1.27924 -0.17578,1.27924 -0.0938,0 -0.17057,-0.70959 -0.17057,-1.57687 z m -213.008509,0.68752 c -0.29677,-0.11383 -0.53959,-0.55371 -0.53959,-0.97738 0,-0.42368 -0.27773,-1.13644 -0.61717,-1.58387 -1.42626,-1.88 -2.05736,-3.29011 -1.65289,-3.69302 0.22944,-0.22857 0.46506,-2.02973 0.56443,-4.31473 l 0.17056,-3.92238 2.14931,2.55816 2.14933,2.55817 -0.37837,1.40511 c -0.20808,0.7728 -0.35922,2.73689 -0.33584,4.36463 0.0233,1.62775 0.0324,3.15144 0.02,3.38597 -0.0243,0.45971 -0.66426,0.55147 -1.52974,0.21934 z m 2.29758,-0.88028 c 0.10895,-0.27213 0.18972,-0.19132 0.20608,0.20609 0.0149,0.3596 -0.0659,0.56109 -0.17916,0.44773 -0.11333,-0.11332 -0.12545,-0.40759 -0.0269,-0.65382 z m 78.050849,-2.66509 c -0.50978,0 -1.10249,0.1756 -1.31713,0.39027 -0.29295,0.29293 -0.34643,0.22264 -0.21451,-0.28191 0.1545,-0.59079 0.41028,-0.65571 2.113,-0.53632 2.74718,0.19263 2.79087,0.22193 2.78335,1.86706 l -0.007,1.4605 -1.21557,-1.44979 c -0.88178,-1.05168 -1.47013,-1.44981 -2.14246,-1.44981 z m -90.780809,2.02666 c 0,-0.38633 0.1468,-0.61167 0.32624,-0.50078 0.17942,0.11088 0.23976,0.42698 0.13406,0.7024 -0.27058,0.70516 -0.4603,0.62206 -0.4603,-0.20162 z m 154.676109,-0.58498 c 0.58742,-0.56261 0.59468,-0.55536 0.16319,0.16318 -0.24841,0.41361 -0.52507,0.67861 -0.6148,0.58885 -0.0897,-0.0897 0.11348,-0.42815 0.45161,-0.75203 z m -96.602179,-0.0774 c -2.00029,-0.76027 -3.214,-0.8554 -4.19763,-0.32896 -0.62494,0.33446 -0.65984,0.2186 -0.65984,-2.19052 0,-4.55809 1.01116,-15.32092 1.57998,-16.81752 0.36012,-0.94748 0.47222,-1.92287 0.33323,-2.89961 -1.14253,-8.02834 -0.20212,-11.48031 3.65043,-13.40012 2.3874,-1.18969 5.07645,-1.1458 10.118589,0.1652 4.51583,1.17415 8.86323,1.33552 13.48448,0.50058 3.55371,-0.64211 3.70772,-0.63802 3.41495,0.0905 -0.13198,0.32833 -0.35117,2.85077 -0.48715,5.60543 -0.15778,3.19661 -0.40316,5.19635 -0.67828,5.52785 -0.33567,0.40445 -0.89645,0.47736 -2.53425,0.32944 -1.1727,-0.10593 -3.93995,0.0518 -6.25478,0.35666 -2.28337,0.30063 -4.9314,0.5466 -5.88449,0.5466 h -1.73294 l -0.007,-1.44978 c -0.004,-0.79741 -0.30362,-2.10224 -0.665579,-2.89963 -0.5573,-1.22775 -0.81173,-1.44981 -1.66118,-1.44981 -0.79428,0 -1.04917,0.18359 -1.22443,0.88185 -0.1217,0.48502 -0.1308,1.21417 -0.0202,1.62036 0.11061,0.40619 -0.30533,-0.18252 -0.92435,-1.30824 -1.28882,-2.34388 -2.4719,-2.91724 -2.85661,-1.38444 -0.4086,1.62801 0.17412,3.26643 1.76762,4.97001 1.92795,2.06113 2.17785,2.96511 1.8007,6.51386 -0.16736,1.57494 -0.46042,4.47538 -0.6512,6.44542 -0.37046,3.82491 -1.26417,9.22687 -1.73548,10.48979 -0.36526,0.97878 -1.55578,1.00427 -3.97414,0.0851 z m -58.07393,-0.6714 c 0,-0.18172 0.23025,-0.24206 0.51171,-0.13405 0.28143,0.10804 0.51168,0.25667 0.51168,0.33042 0,0.0737 -0.23025,0.13406 -0.51168,0.13406 -0.28146,0 -0.51171,-0.1487 -0.51171,-0.33043 z M 254.1959,270.43182 c 0.0852,-0.5803 -0.26818,-1.51682 -1.02968,-2.72903 -0.63764,-1.01508 -1.65251,-2.89545 -2.25527,-4.17864 -1.15605,-2.46103 -4.67927,-11.4537 -5.65707,-14.43904 -0.80888,-2.46963 -2.03316,-3.62626 -3.59742,-3.39862 l -1.2081,0.1758 1.10867,-0.3711 c 0.60977,-0.20409 1.10858,-0.54079 1.10846,-0.74817 -1.3e-4,-0.23393 0.80923,-0.38139 2.13207,-0.38844 3.31918,-0.0177 10.24005,-1.66677 11.26211,-2.68349 0.65417,-0.65069 0.70265,10.3031 0.0881,19.89055 -0.28375,4.42642 -0.51662,8.43179 -0.51747,8.90085 -0.001,0.66097 -0.17732,0.85284 -0.78279,0.85284 -0.6465,0 -0.75887,-0.15239 -0.65156,-0.88351 z m -57.49051,0.50682 c 0.11336,-0.11332 0.40758,-0.12544 0.65383,-0.0269 0.27215,0.10896 0.19132,0.18973 -0.20609,0.2061 -0.3596,0.0149 -0.5611,-0.0659 -0.44774,-0.17917 z M 32.637041,270.39857 c 0.10894,-0.27216 0.18971,-0.19131 0.20609,0.20607 0.0149,0.35961 -0.0657,0.56111 -0.17918,0.44775 -0.11332,-0.11332 -0.12545,-0.4076 -0.0269,-0.65382 z m 91.997299,0.27323 c 0,-0.0726 0.45241,-0.19825 1.00538,-0.27941 0.55296,-0.0812 0.92767,-0.0217 0.8327,0.13184 -0.16905,0.2735 -1.83808,0.40751 -1.83808,0.14757 z m -91.951439,-8.08396 -0.60211,-5.3162 1.28277,-2.70039 c 0.7055,-1.48522 1.83766,-4.67291 2.51588,-7.08374 1.46469,-5.20641 1.43282,-5.25117 2.51276,3.53054 0.79375,6.45451 0.80492,6.6616 0.69326,12.87076 l -0.075,4.17192 -1.43114,0.73012 c -0.78714,0.40157 -1.97684,0.92053 -2.64377,1.15324 l -1.21261,0.42313 -0.21894,-1.23161 c -0.12043,-0.67737 -0.48989,-3.62387 -0.82106,-6.54777 z m 164.100659,6.59832 c -0.93812,-0.29145 -1.81844,-0.69917 -1.95627,-0.90603 -0.45735,-0.68634 -0.26205,-2.39253 0.57313,-5.00725 0.89145,-2.79087 5.41109,-19.88361 6.21706,-23.51216 0.27089,-1.21955 0.4454,-3.10033 0.38779,-4.17949 -0.0576,-1.07916 -0.0501,-1.96184 0.0168,-1.9615 0.0668,3.3e-4 0.71386,0.4698 1.4379,1.04325 0.79538,0.62995 1.741,1.90506 2.38912,3.22155 0.96446,1.95913 1.07066,2.48198 1.05268,5.18301 -0.0126,1.89359 -0.27607,3.94988 -0.71276,5.56258 -0.38104,1.40717 -1.08664,4.09356 -1.56801,5.96979 -0.48137,1.87622 -1.73307,6.11637 -2.78154,9.42253 -2.13278,6.72535 -1.64218,6.22426 -5.05582,5.16372 z m -75.98176,-3.86711 c -0.13785,-2.33071 -0.44487,-6.61704 -0.68226,-9.52518 -0.23739,-2.90814 -0.42051,-8.36747 -0.40696,-12.13183 0.0238,-6.59231 0.0554,-6.90004 0.85731,-8.35771 0.75267,-1.36805 0.96768,-1.5233 2.23827,-1.61636 1.55263,-0.11374 5.42233,1.42095 5.75249,2.28139 0.34265,0.89291 1.17383,8.90506 1.02187,9.85024 -0.0827,0.51387 -0.22667,3.08342 -0.32012,5.71013 -0.12377,3.48045 -0.49691,6.48669 -1.37558,11.08337 -0.66312,3.46913 -1.20569,6.41746 -1.20569,6.55183 0,0.20705 -4.25354,0.55472 -5.28755,0.4322 -0.19163,-0.0226 -0.45095,-1.89737 -0.59178,-4.27808 z m -88.157659,3.01139 c 0.0947,-0.23453 0.17206,-0.0426 0.17206,0.42642 0,0.46906 -0.0775,0.66094 -0.17206,0.42641 -0.0946,-0.23452 -0.0946,-0.61831 0,-0.85283 z M 189.1919,267.70849 c -1.24627,-0.36501 -1.4969,-0.59809 -1.77382,-1.64985 -0.75692,-2.87461 -1.1706,-7.80903 -1.18942,-14.18777 -0.0232,-7.8432 0.31684,-9.45504 2.41609,-11.45367 2.11521,-2.01384 2.63817,-4.40894 0.96267,-4.40894 -0.59128,0 -3.81062,4.08416 -4.93586,6.26178 -1.0865,2.10263 -2.17609,2.796 -5.50678,3.50434 -10.08389,2.14455 -15.49483,-3.74111 -13.42384,-14.6015 0.33363,-1.74966 0.7367,-3.43599 0.89567,-3.7474 0.34529,-0.67636 0.44287,-0.65769 6.09722,1.16678 4.17342,1.34661 4.38024,1.37757 9.72223,1.45583 8.05152,0.11797 12.12423,0.83288 14.93889,2.62248 1.66454,1.05831 2.62937,2.40276 2.62937,3.66392 0,0.7831 -3.49093,14.66498 -5.27954,20.99447 -1.31113,4.6397 -2.22536,8.88487 -2.22536,10.33326 0,1.28601 -0.26265,1.50016 -1.14777,0.93579 -0.40064,-0.25546 -1.38154,-0.65575 -2.17975,-0.88952 z m 67.21892,-0.7386 c 0.0816,-0.42433 0.15145,-0.15747 0.15524,0.59301 0.004,0.75048 -0.063,1.09767 -0.14836,0.77153 -0.0854,-0.32618 -0.0885,-0.9402 -0.007,-1.36454 z m -136.45193,-2.39186 c 0.0814,-0.42217 0.14784,-0.0767 0.14784,0.76755 0,0.84428 -0.0666,1.18967 -0.14784,0.76753 -0.0814,-0.42215 -0.0814,-1.11293 0,-1.53508 z m -35.128789,1.38583 c 0.10895,-0.27213 0.18973,-0.19129 0.2061,0.2061 0.0149,0.35962 -0.0659,0.5611 -0.17917,0.44774 -0.11333,-0.11333 -0.12545,-0.40758 -0.0269,-0.65384 z m -40.19101,-1.64167 c -0.33959,-0.37526 -0.5407,-0.68229 -0.44687,-0.68229 0.0939,0 0.44842,0.30703 0.78801,0.68229 0.33959,0.37523 0.54066,0.68224 0.44687,0.68224 -0.0939,0 -0.44843,-0.30701 -0.78801,-0.68224 z m 51.78946,-0.40512 c 0.10895,-0.27212 0.18974,-0.19129 0.20611,0.20611 0.0149,0.3596 -0.0659,0.56109 -0.17918,0.44772 -0.11332,-0.11331 -0.12544,-0.40756 -0.0269,-0.65383 z m 97.455399,0.0639 c 0,-0.18762 0.15351,-0.34112 0.34114,-0.34112 0.18761,0 0.34113,0.1535 0.34113,0.34112 0,0.18764 -0.15352,0.34114 -0.34113,0.34114 -0.18763,0 -0.34114,-0.1535 -0.34114,-0.34114 z M 85.171251,261.5291 c 0.10893,-0.27213 0.18972,-0.19129 0.20608,0.20609 0.0149,0.35962 -0.066,0.56109 -0.17917,0.44775 -0.11333,-0.11334 -0.12545,-0.40759 -0.0269,-0.65384 z m -45.37384,-0.86766 c 0.0865,-0.33191 0.16295,-0.14295 0.1699,0.41992 0.007,0.56288 -0.0637,0.83442 -0.15724,0.60348 -0.0934,-0.23097 -0.0991,-0.6915 -0.0129,-1.0234 z m 146.007499,-0.15575 c 0.1089,-0.27213 0.18973,-0.19129 0.2061,0.20608 0.0149,0.35963 -0.0659,0.5611 -0.17917,0.44776 -0.11335,-0.11334 -0.12547,-0.40758 -0.0268,-0.65384 z m -154.191259,-1.0234 c 0.10895,-0.27213 0.18971,-0.19129 0.2061,0.20609 0.0149,0.35963 -0.066,0.56111 -0.17919,0.44775 -0.11332,-0.11333 -0.12545,-0.40757 -0.0269,-0.65384 z m 53.90582,-2.40923 c 0.0947,-0.23454 0.17206,-0.0427 0.17206,0.42641 0,0.46905 -0.0775,0.66094 -0.17206,0.42642 -0.0947,-0.23453 -0.0947,-0.61832 0,-0.85283 z m 34.113099,-0.68226 c 0.0947,-0.23453 0.17206,-0.0426 0.17206,0.42639 0,0.46908 -0.0774,0.66094 -0.17206,0.42642 -0.0947,-0.23452 -0.0947,-0.61828 0,-0.85281 z m 137.46051,-1.01936 c 0.0816,-0.42434 0.15145,-0.15748 0.15524,0.59301 0.004,0.75049 -0.063,1.09767 -0.14836,0.77153 -0.0854,-0.32615 -0.0885,-0.94019 -0.007,-1.36454 z m -61.20586,1.19 c -0.42432,-0.54106 -0.41225,-0.55314 0.1288,-0.12881 0.32835,0.2575 0.59698,0.52614 0.59698,0.59697 0,0.28077 -0.28012,0.10011 -0.72577,-0.46816 z m -10.4268,-1.01692 c 0.0864,-0.3319 0.16293,-0.14294 0.16988,0.41993 0.007,0.56287 -0.0637,0.83442 -0.15726,0.60347 -0.0934,-0.23095 -0.0991,-0.6915 -0.0126,-1.0234 z m -166.491449,0.35534 c 0.32835,-0.0858 0.86563,-0.0858 1.19396,0 0.32834,0.0859 0.0597,0.15601 -0.59698,0.15601 -0.65667,0 -0.92531,-0.0701 -0.59698,-0.15601 z m -4.76823,-0.0137 c 0.70778,-0.0739 1.78234,-0.0726 2.38791,0.003 0.6056,0.0752 0.0266,0.13578 -1.28684,0.13426 -1.31336,-9.6e-4 -1.80883,-0.0633 -1.10107,-0.13702 z M 2.9358108,255.8852 c 0.89121,-0.0702 2.34954,-0.0702 3.24075,0 0.8912,0.0702 0.16204,0.12776 -1.62037,0.12776 -1.78242,0 -2.51159,-0.0575 -1.62038,-0.12776 z m 94.5084202,-2.90478 c 0.0814,-0.42214 0.14784,-0.0767 0.14784,0.76754 0,0.8443 -0.0666,1.18969 -0.14784,0.76754 -0.0813,-0.42213 -0.0813,-1.11294 0,-1.53508 z m 33.201309,-7.10629 c -0.0736,-4.51523 -0.30247,-8.64274 -0.52621,-9.49288 -0.54658,-2.0768 -0.0359,-2.39595 1.33532,-0.83432 2.32755,2.65092 3.74869,7.35063 3.11552,10.303 -0.41448,1.93268 -1.72393,4.73242 -2.99104,6.39514 -1.08225,1.42013 -1.01683,1.80905 0.13368,0.7948 l 0.93811,-0.827 -0.82575,0.93677 c -0.45416,0.51522 -0.87603,0.88646 -0.93751,0.825 -0.0616,-0.0616 -0.17043,-3.7067 -0.24212,-8.10051 z m 126.4403,4.20667 c 0.0736,-0.70357 0.13381,-0.1279 0.13381,1.27924 0,1.40717 -0.0602,1.98283 -0.13381,1.27925 -0.0736,-0.70358 -0.0736,-1.8549 0,-2.55849 z m -127.21933,2.217 c 0.0947,-0.23453 0.17206,-0.0426 0.17206,0.42641 0,0.46906 -0.0774,0.66094 -0.17206,0.42641 -0.0946,-0.23452 -0.0946,-0.61829 0,-0.85282 z M 29.559231,250.25101 c -0.18596,-1.73549 -0.21253,-3.38572 -0.059,-3.66715 0.20755,-0.38067 0.28171,-0.29332 0.28964,0.34113 0.007,0.46906 0.24461,1.97425 0.53055,3.34489 0.28595,1.37062 0.43028,2.63705 0.32072,2.81431 -0.49755,0.80505 -0.76788,0.0969 -1.08183,-2.83318 z m 167.692509,1.19396 c -0.42431,-0.54105 -0.41226,-0.55312 0.12881,-0.1288 0.56823,0.44565 0.74896,0.72579 0.46819,0.72579 -0.0709,0 -0.33948,-0.26863 -0.597,-0.59699 z m -96.24722,0.0322 c 0.23097,-0.0934 0.69147,-0.0991 1.0234,-0.013 0.3319,0.0865 0.14293,0.16297 -0.41993,0.1699 -0.56287,0.007 -0.83441,-0.0637 -0.60347,-0.15726 z m -4.876079,-1.22604 -1.00194,-1.10869 1.10867,1.00193 c 1.03345,0.93394 1.26548,1.21542 1.00194,1.21542 -0.0586,0 -0.55762,-0.49891 -1.10867,-1.10866 z m 2.12828,-3.15548 -0.20257,-1.0234 0.48229,1.0234 c 0.5426,1.15136 0.71872,2.45365 0.20759,1.53507 -0.1566,-0.28142 -0.37588,-0.97221 -0.48731,-1.53507 z m 158.832839,-0.76301 c 0.0784,-0.51854 0.14466,-0.17525 0.14722,0.76286 0.002,0.93811 -0.0616,1.36237 -0.14257,0.94279 -0.081,-0.41956 -0.0831,-1.18711 -0.005,-1.70565 z m -13.91215,0.5923 c -0.3396,-0.37525 -0.54069,-0.68228 -0.44688,-0.68228 0.0938,0 0.44841,0.30703 0.78801,0.68228 0.33959,0.37524 0.54068,0.68224 0.44687,0.68224 -0.0938,0 -0.44841,-0.307 -0.788,-0.68224 z m -57.71363,-0.74623 c 0.1089,-0.27214 0.18972,-0.19131 0.2061,0.2061 0.0149,0.3596 -0.0659,0.56109 -0.17917,0.44772 -0.11335,-0.11331 -0.12548,-0.40758 -0.0269,-0.65382 z m -55.27698,-2.40926 c 0.0756,-0.60975 0.13758,-0.11086 0.13758,1.10868 0,1.21955 -0.0619,1.71845 -0.13758,1.10868 -0.0756,-0.60976 -0.0756,-1.60758 0,-2.21736 z m -12.00997,0.17056 c 0.0133,-1.45404 0.1559,-2.95077 0.31714,-3.32601 0.1918,-0.44632 0.30149,0.46797 0.31716,2.64378 0.0145,2.0059 -0.1114,3.32601 -0.31716,3.32601 -0.20012,0 -0.33122,-1.09268 -0.31714,-2.64378 z m 155.19068,2.00131 c 0,-0.16574 0.34539,-0.38836 0.76754,-0.49472 0.74131,-0.18677 0.74491,-0.17648 0.10537,0.30134 -0.7724,0.57707 -0.87291,0.59935 -0.87291,0.19338 z m -35.04412,-0.58702 c 0.11336,-0.11333 0.40759,-0.12545 0.65384,-0.0269 0.27213,0.10895 0.1913,0.18971 -0.2061,0.2061 -0.35961,0.0149 -0.56109,-0.066 -0.44774,-0.17918 z m 33.635,-6.96405 c -1.09904,-1.9555 -2.73111,-2.90699 -6.81412,-3.97268 l -3.61796,-0.94431 6.82033,-2.48755 c 5.06151,-1.84606 6.93457,-2.39274 7.26332,-2.1199 0.3172,0.26324 0.64435,0.25988 1.15211,-0.0115 1.01276,-0.54201 1.17497,0.12313 0.94127,3.8595 -0.2008,3.21025 -1.47652,8.30402 -2.55266,10.19239 -0.32407,0.56864 -0.73964,1.31924 -0.92349,1.66795 -0.26714,0.50672 -0.45241,0.0849 -0.92251,-2.10037 -0.32354,-1.50394 -0.92937,-3.34135 -1.34629,-4.08315 z m -243.523039,6.70022 c 0,-0.0708 0.26865,-0.33948 0.597,-0.59697 0.54105,-0.42432 0.55311,-0.41226 0.12881,0.12879 -0.44565,0.56823 -0.72579,0.74896 -0.72579,0.46818 z m 246.903119,-1.2137 c 0.31609,-0.55075 0.63676,-0.93931 0.71261,-0.86348 0.14954,0.14955 -0.89948,1.86484 -1.14048,1.86484 -0.0808,0 0.11178,-0.45061 0.42787,-1.00136 z m -39.84376,0.10583 c -0.76207,-0.30492 -1.32267,-0.61731 -1.24578,-0.6942 0.0769,-0.0769 0.88918,0.16422 1.80509,0.53579 0.91591,0.37158 1.47651,0.68397 1.24578,0.69421 -0.23073,0.0107 -1.04302,-0.23086 -1.80509,-0.5358 z M 167.2322,243.94 c -0.42432,-0.54104 -0.41224,-0.55311 0.12882,-0.12881 0.56823,0.44565 0.74894,0.72579 0.46818,0.72579 -0.0708,0 -0.33947,-0.26864 -0.59696,-0.597 z m 40.39686,-1.53111 c 0.0816,-0.42433 0.15145,-0.15748 0.15523,0.59301 0.004,0.75048 -0.063,1.09766 -0.14835,0.77153 -0.0854,-0.32615 -0.0885,-0.9402 -0.007,-1.36454 z m 49.46095,-1.53907 c 0.0782,-0.51595 0.14211,-0.0939 0.14211,0.93812 0,1.03192 -0.0639,1.45407 -0.14211,0.93811 -0.0781,-0.51596 -0.0781,-1.36026 0,-1.87623 z m -9.55608,2.43768 c 0.11336,-0.11334 0.40759,-0.12546 0.65384,-0.0269 0.27213,0.10894 0.1913,0.18973 -0.2061,0.2061 -0.35961,0.0149 -0.56109,-0.066 -0.44774,-0.17918 z M 43.359841,243.2876 c 0.23454,-0.0947 0.6183,-0.0947 0.85284,0 0.23451,0.0946 0.0426,0.17204 -0.42643,0.17204 -0.46904,0 -0.66093,-0.0775 -0.42641,-0.17204 z m 96.369549,-0.69151 c 0.32834,-0.0859 0.86562,-0.0859 1.19396,0 0.32834,0.0859 0.0597,0.15599 -0.59698,0.15599 -0.65666,0 -0.92532,-0.0701 -0.59698,-0.15599 z m -88.345869,0.0292 c 0.11335,-0.11334 0.4076,-0.12546 0.65384,-0.0269 0.27215,0.10897 0.19131,0.18975 -0.20609,0.20611 -0.3596,0.0149 -0.56107,-0.066 -0.44775,-0.17917 z m -8.19425,-0.0292 c 0.32836,-0.0859 0.86562,-0.0859 1.19396,0 0.32835,0.0859 0.0597,0.15599 -0.59698,0.15599 -0.65666,0 -0.92531,-0.0701 -0.59698,-0.15599 z M 148.0871,242.26416 c 0.23454,-0.0947 0.61832,-0.0947 0.85283,0 0.23452,0.0946 0.0426,0.17204 -0.4264,0.17204 -0.46905,0 -0.66094,-0.0775 -0.42643,-0.17204 z m -94.997909,0.0199 c 0.11332,-0.11333 0.40758,-0.12545 0.65384,-0.0269 0.27213,0.10894 0.19129,0.18974 -0.2061,0.2061 -0.35961,0.0149 -0.56111,-0.0658 -0.44774,-0.17917 z m -5.46521,-0.029 c 0.32835,-0.0859 0.86564,-0.0859 1.19396,0 0.32835,0.0859 0.0597,0.15601 -0.59697,0.15601 -0.65669,0 -0.92533,-0.07 -0.59699,-0.15601 z m 2.72906,-0.34113 c 0.32832,-0.0859 0.86562,-0.0859 1.19395,0 0.32834,0.0858 0.0597,0.156 -0.59697,0.156 -0.65668,0 -0.92533,-0.0701 -0.59698,-0.156 z m -8.53227,6.8e-4 c 0.32616,-0.0853 0.94019,-0.0885 1.36452,-0.007 0.42436,0.0816 0.1575,0.15148 -0.59299,0.15525 -0.7505,0.004 -1.09768,-0.063 -0.77153,-0.14836 z m 11.60954,-0.31284 c 0.11334,-0.11334 0.4076,-0.12545 0.65383,-0.0269 0.27214,0.10895 0.19132,0.18973 -0.20608,0.20609 -0.35962,0.0149 -0.56108,-0.0658 -0.44775,-0.17916 z M 199.98081,240.8693 c -0.42433,-0.54105 -0.41227,-0.55313 0.1288,-0.1288 0.32833,0.2575 0.59698,0.52613 0.59698,0.59698 0,0.28075 -0.28015,0.10001 -0.72578,-0.46819 z m -121.825579,0.35625 c 0.42215,-0.0814 1.11294,-0.0814 1.53508,0 0.42216,0.0814 0.0767,0.14782 -0.76753,0.14782 -0.84431,0 -1.18971,-0.0666 -0.76755,-0.14782 z m -11.60496,0.017 c 0.23097,-0.0934 0.69149,-0.0991 1.02339,-0.0129 0.33192,0.0865 0.14295,0.16294 -0.41992,0.16988 -0.56286,0.007 -0.83442,-0.0637 -0.60347,-0.15724 z m -16.37429,0 c 0.23096,-0.0934 0.69148,-0.0991 1.02339,-0.0129 0.33192,0.0865 0.14294,0.16294 -0.41992,0.16988 -0.56286,0.007 -0.83442,-0.0637 -0.60347,-0.15724 z m 11.26382,-0.3433 c 0.23453,-0.0947 0.61829,-0.0947 0.85282,0 0.23453,0.0947 0.0426,0.17208 -0.42641,0.17208 -0.46905,0 -0.66093,-0.0775 -0.42641,-0.17208 z m 16.52859,-0.75605 c 1.82036,-0.30421 3.49296,-0.73667 3.71689,-0.96104 0.22394,-0.22437 0.81984,-0.3254 1.32424,-0.22452 0.77053,0.1541 1.1422,-0.0723 2.32582,-1.417 0.77481,-0.88023 2.78795,-3.61911 4.47362,-6.0864 3.02917,-4.43374 6.92474,-8.77912 7.31063,-8.15475 0.10947,0.17718 0.30393,2.17744 0.43208,4.44503 l 0.23301,4.12291 -0.98796,0.98685 c -0.54337,0.54276 -1.75551,1.26711 -2.69361,1.60966 -3.03386,1.10773 -4.38486,1.83147 -7.1402,3.82497 -2.57925,1.86609 -2.82598,1.96757 -5.28754,2.1748 -1.4201,0.11951 -3.57983,0.2208 -4.79939,0.22498 l -2.21735,0.008 3.30976,-0.55311 z m 122.353549,-0.63837 c -0.42432,-0.54106 -0.41227,-0.55313 0.12879,-0.12881 0.56824,0.44566 0.74895,0.72578 0.46819,0.72578 -0.0708,0 -0.33948,-0.26864 -0.59698,-0.59697 z M 73.744521,239.0589 c 0.56076,-0.22486 0.75969,-0.5418 0.68227,-1.08704 -0.10519,-0.74121 -0.26697,-0.77598 -4.37344,-0.94024 l -4.26413,-0.17056 1.70567,-0.58364 c 0.93811,-0.32101 3.08723,-0.75269 4.77582,-0.95927 1.6886,-0.2066 3.53071,-0.44524 4.09358,-0.53031 0.94635,-0.14307 1.49174,-0.97408 7.24635,-11.04163 4.76483,-8.33595 6.46359,-11.62927 7.24985,-14.05505 1.23407,-3.80733 2.79744,-6.27006 5.17162,-8.14675 2.19165,-1.73241 2.80007,-2.0462 6.482239,-3.34326 l 2.95313,-1.04025 0.20718,0.8255 c 0.11398,0.45404 0.72888,1.34722 1.36648,1.98481 1.95333,1.95332 5.76635,2.40493 8.49792,1.00648 1.24856,-0.63922 2.77881,-3.83675 2.45451,-5.12885 -0.17838,-0.71075 -0.13236,-0.82169 0.22312,-0.53775 0.24631,0.19675 2.44346,1.4619 4.88256,2.81148 2.43909,1.34958 4.83618,2.93055 5.32688,3.51327 l 0.89216,1.05948 -1.30076,2.41424 c -2.70107,5.01321 -4.32935,11.61751 -4.39508,17.82659 -0.0107,1.0233 -0.0647,1.06878 -0.94961,0.80161 -0.51596,-0.15579 -2.85697,-1.19618 -5.20225,-2.31199 -2.34528,-1.11578 -4.83908,-2.21735 -5.54179,-2.44791 -0.82813,-0.27169 -1.72019,-0.98017 -2.53542,-2.01362 -1.77547,-2.25076 -3.18237,-3.41947 -4.40604,-3.66014 -0.86665,-0.17047 -1.11131,-0.43127 -1.36843,-1.45885 l -0.31311,-1.25129 -2.33436,0.0956 c -1.283919,0.0526 -2.858499,0.3146 -3.499069,0.58225 -1.14012,0.47636 -1.1592,0.51754 -0.90452,1.95117 0.36601,2.06031 0.20477,4.87151 -0.44438,7.7483 -0.10251,0.4541 -1.22562,1.91244 -2.4959,3.24074 -1.27028,1.32831 -3.65706,4.38624 -5.30395,6.79538 -1.64691,2.40915 -3.4462,4.89488 -3.99844,5.52382 l -1.00404,1.14354 -1.70249,-1.00383 c -0.93638,-0.55211 -1.92601,-1.00383 -2.1992,-1.00383 -0.74006,0 -0.60024,1.2851 0.18558,1.70565 0.37525,0.20082 0.68225,0.48965 0.68225,0.64182 0,0.27999 -4.91044,1.29345 -6.48147,1.33769 l -0.85284,0.0241 0.79155,-0.31741 z m 150.592499,-0.18651 c 0.11335,-0.11334 0.40758,-0.12545 0.65383,-0.0269 0.27213,0.10893 0.1913,0.18973 -0.2061,0.20608 -0.3596,0.0149 -0.56109,-0.0659 -0.44773,-0.17915 z M 27.527171,237.62868 c 0.0946,-0.23453 0.17206,-0.0427 0.17206,0.42641 0,0.46905 -0.0775,0.66094 -0.17206,0.42642 -0.0947,-0.23454 -0.0947,-0.61831 0,-0.85283 z m 161.093129,0.46507 c -0.10282,-0.16636 0.0799,-0.51176 0.40628,-0.76755 0.52405,-0.41083 0.54385,-0.40171 0.16978,0.078 -0.2329,0.2987 -0.32244,0.6441 -0.19899,0.76754 0.12344,0.12339 0.13117,0.22447 0.0171,0.22447 -0.114,0 -0.2914,-0.13613 -0.39423,-0.30248 z m -81.29126,0.0963 c 0.11334,-0.11334 0.40759,-0.12545 0.65384,-0.0269 0.27213,0.10893 0.1913,0.18971 -0.20611,0.20608 -0.35959,0.0149 -0.56108,-0.066 -0.44773,-0.17916 z m -36.853219,-0.71054 c 0.32613,-0.0853 0.94016,-0.0885 1.36449,-0.007 0.42435,0.0816 0.1575,0.15145 -0.593,0.15524 -0.75048,0.004 -1.09767,-0.063 -0.77149,-0.14837 z m 32.134539,-0.83972 c -1.48942,-0.40314 -3.629069,-0.91375 -4.754819,-1.13469 -1.53635,-0.30153 -1.86882,-0.46049 -1.33319,-0.63742 0.39246,-0.12962 1.06171,-0.60627 1.4872,-1.05917 0.97989,-1.04305 1.24505,-3.8993 0.76168,-8.20477 -0.18955,-1.68861 -0.30469,-3.11071 -0.25585,-3.16026 0.0489,-0.0494 0.46265,0.20401 0.91956,0.56339 0.45691,0.35941 2.207319,1.06007 3.889799,1.55704 5.37003,1.58616 5.92537,1.8534 6.83032,3.28694 0.92347,1.46284 2.69578,2.49194 6.37741,3.70307 2.55822,0.84158 2.78238,1.28122 1.82354,3.57612 -0.45502,1.08897 -0.60526,1.1666 -2.98491,1.54257 -1.37818,0.21772 -2.73604,0.44652 -3.01747,0.50843 -1.92575,0.42366 -7.27657,0.12636 -9.74327,-0.54125 z m -83.611449,-1.05797 c 0.0946,-0.23453 0.17204,-0.0426 0.17204,0.4264 0,0.46906 -0.0775,0.66095 -0.17204,0.42642 -0.0947,-0.23452 -0.0947,-0.61831 0,-0.85282 z m 269.999419,0.51188 c 5.12595,-0.0531 13.41543,-0.053 18.42108,10e-5 5.00565,0.0531 0.8117,0.0966 -9.3199,0.0966 -10.13159,-5e-5 -14.22712,-0.0436 -9.10118,-0.0966 z m -85.39214,-2.47338 c -0.33959,-0.37525 -0.54069,-0.68226 -0.44688,-0.68226 0.0939,0 0.44843,0.30701 0.78801,0.68226 0.33959,0.37524 0.54068,0.68224 0.44687,0.68224 -0.0938,0 -0.4484,-0.307 -0.788,-0.68224 z m 47.88582,-1.95344 c -1.57108,-0.73892 -4.00385,-2.06002 -5.40617,-2.93578 -1.40231,-0.87575 -2.83097,-1.59227 -3.1748,-1.59227 -0.57788,0 -0.585,-0.0574 -0.0941,-0.75815 0.29207,-0.41701 0.53439,-1.22293 0.53848,-1.79097 0.007,-0.91001 0.42216,-1.34146 3.49659,-3.62993 1.91904,-1.42845 4.52359,-3.40271 5.7879,-4.38726 l 2.29874,-1.79008 2.22483,0.89065 c 1.22366,0.48987 2.49714,0.89068 2.82996,0.89068 0.33281,0 0.88377,0.47169 1.22433,1.04822 0.34056,0.57653 2.02388,2.90271 3.74071,5.16929 1.71682,2.26657 3.3156,4.37967 3.55284,4.69574 0.38882,0.51805 0.0526,0.68808 -3.41131,1.72483 -3.41934,1.02343 -4.00574,1.31629 -5.32308,2.65834 -1.47715,1.50486 -1.4848,1.50781 -3.45442,1.3292 -1.29974,-0.11784 -2.94967,-0.63789 -4.8305,-1.52251 z m -123.41107,0.79704 c -1.48918,-1.58515 -5.8449,-2.0496 -7.13382,-0.76067 -0.47016,0.47013 -0.56349,0.46804 -0.92086,-0.0206 -0.21869,-0.2991 -1.81657,-1.05045 -3.5508,-1.66967 -3.53422,-1.26186 -5.26699,-2.21879 -4.45601,-2.46079 1.3989,-0.41751 1.78426,-2.87054 0.86173,-5.48532 l -0.49585,-1.40536 1.09283,0.47453 c 0.60104,0.26096 2.73573,1.25786 4.74377,2.21527 2.00803,0.95745 3.79313,1.74081 3.96691,1.74081 0.17378,0 0.50602,0.45888 0.73832,1.01971 0.5865,1.41594 2.8844,3.415 3.92551,3.415 1.39819,0 1.13023,-1.45594 -0.5468,-2.97105 l -1.39866,-1.26359 0.24412,-4.44944 c 0.29075,-5.2998 1.16542,-8.68215 3.53238,-13.66002 l 1.62208,-3.4113 1.14064,2.31588 1.14063,2.31589 -0.22503,6.04182 c -0.21895,5.87897 -0.9785,14.3902 -1.45777,16.33531 -0.31094,1.26197 -1.12493,2.49893 -1.64443,2.49893 -0.22714,0 -0.75766,-0.36686 -1.17889,-0.81525 z m 72.62564,-0.73736 c 0,-0.0937 0.46053,0.0676 1.02339,0.35866 0.56286,0.29107 1.02339,0.60597 1.02339,0.69978 0,0.0939 -0.46053,-0.0676 -1.02339,-0.35863 -0.56286,-0.2911 -1.02339,-0.60598 -1.02339,-0.69981 z m -2.18222,0.13124 c 0.0966,-0.15635 0.32015,-0.28428 0.49669,-0.28428 0.17657,0 0.32099,0.12791 0.32099,0.28428 0,0.15635 -0.2235,0.28428 -0.49667,0.28428 -0.27318,0 -0.41763,-0.12791 -0.32101,-0.28428 z m -2.29601,-0.85181 c -0.42452,-0.51463 -0.39661,-0.52944 0.29937,-0.15858 0.7938,0.42298 0.98925,0.72611 0.46818,0.72611 -0.16465,0 -0.51005,-0.25539 -0.76755,-0.56753 z M 28.350081,231.3476 c 0.23452,-0.0946 0.6183,-0.0946 0.85283,0 0.23454,0.0947 0.0426,0.17207 -0.42642,0.17207 -0.46905,0 -0.66093,-0.0775 -0.42641,-0.17207 z m 9.72933,-0.3213 c 0.11334,-0.11335 0.40759,-0.12547 0.65383,-0.0269 0.27214,0.10895 0.19132,0.18972 -0.20608,0.2061 -0.35961,0.0149 -0.56108,-0.0658 -0.44775,-0.17918 z m 3.47715,-0.45617 c 0.10919,-0.17663 -0.45743,-0.38007 -1.25912,-0.4521 -1.28814,-0.11578 -1.2319,-0.13788 0.48379,-0.19055 1.17505,-0.0361 2.03873,0.098 2.18804,0.3395 0.16585,0.26835 0.0608,0.32773 -0.32101,0.18127 -0.31221,-0.11979 -0.56767,-0.0691 -0.56767,0.11255 0,0.18174 -0.16254,0.33043 -0.36125,0.33043 -0.1987,0 -0.27195,-0.1445 -0.16278,-0.32114 z m 149.939469,-0.726 c -0.76596,-0.23231 -0.7312,-0.26008 0.34113,-0.2726 0.65669,-0.007 1.65449,0.20421 2.21736,0.47082 l 1.0234,0.48477 -1.36454,-0.21218 c -0.75047,-0.11669 -1.74829,-0.32857 -2.21735,-0.47081 z m 86.75542,-1.06355 c 0.10889,-0.27211 0.18973,-0.19129 0.20609,0.20612 0.0148,0.3596 -0.0658,0.56108 -0.17917,0.44773 -0.11335,-0.11333 -0.12547,-0.40758 -0.0269,-0.65385 z m -90.07434,0.54013 c 0.11335,-0.11333 0.40759,-0.12544 0.65383,-0.0269 0.27215,0.10894 0.19131,0.18974 -0.20609,0.2061 -0.35961,0.0149 -0.56109,-0.0659 -0.44774,-0.17917 z m -134.746799,0 c 0.11334,-0.11333 0.4076,-0.12544 0.65383,-0.0269 0.27214,0.10894 0.19132,0.18974 -0.20608,0.2061 -0.35962,0.0149 -0.56108,-0.0659 -0.44775,-0.17917 z m -19.59184,-1.84006 c 0.0636,-1.12608 0.21709,-2.04655 0.34115,-2.0455 0.60546,0.005 3.33189,0.85858 6.86944,2.15039 l 3.91487,1.42957 -2.37977,0.19562 c -1.30889,0.10754 -3.8381,0.223 -5.62052,0.25647 l -3.24073,0.0609 z m 158.915499,-0.0501 c 0.94287,-0.37179 0.99293,-0.35221 1.4038,0.54957 l 0.38333,0.84131 -1.20271,-0.57352 c -1.01178,-0.4825 -1.10456,-0.61226 -0.58442,-0.81736 z m -19.798,-0.27628 c -2.41072,-0.759 -4.98201,-1.38 -5.71395,-1.38 -0.73196,0 -1.33081,-0.14817 -1.33081,-0.32925 0,-0.1811 -0.49528,-0.91028 -1.10061,-1.62038 -0.60534,-0.71012 -0.7916,-1.02833 -0.41395,-0.70716 2.08592,1.7739 13.2201,4.97134 17.65031,5.06868 0.93995,0.0206 0.9967,0.0678 0.4091,0.33939 -1.25045,0.57808 -5.05104,0.0297 -9.50009,-1.37128 z m -127.093329,0.6054 c -1.23583,-0.37788 -3.32151,-1.12792 -4.63487,-1.66676 -1.31336,-0.53885 -3.7401,-1.29223 -5.3928,-1.67416 -3.96674,-0.91673 -5.91543,-1.92191 -6.75039,-3.48206 -0.2836,-0.52991 -0.099,-0.56329 2.09698,-0.3792 2.26234,0.18967 2.41957,0.15741 2.60028,-0.5336 0.1775,-0.67872 0.29358,-0.62046 1.50413,0.75481 l 1.31179,1.49029 4.26542,0.4194 c 2.34596,0.23068 6.07411,0.4584 8.28478,0.50604 4.20223,0.0907 6.81402,0.80338 8.08346,2.20609 0.48708,0.53821 0.42583,0.68796 -0.74321,1.81692 -0.70073,0.67669 -1.65783,1.30689 -2.12689,1.40044 -1.55464,0.31004 -6.21807,-0.16088 -8.49868,-0.85821 z m 224.775819,0.38275 c 0,-0.1985 -1.50926,-2.30925 -3.35391,-4.69056 -1.84466,-2.3813 -3.84367,-5.05305 -4.44226,-5.93718 l -1.08834,-1.60753 1.25214,-1.63321 c 0.68868,-0.89827 1.3796,-1.59594 1.53538,-1.55037 1.5869,0.46427 8.14378,5.54643 8.14378,6.31219 0,0.18608 0.57565,1.2777 1.27924,2.42584 2.8549,4.65869 2.83388,5.03678 -0.34113,6.13353 -2.9043,1.00324 -2.9849,1.01801 -2.9849,0.54729 z m -81.78619,0.12572 c 0.32835,-0.0858 0.86562,-0.0858 1.19397,0 0.32833,0.0859 0.0597,0.156 -0.59699,0.156 -0.65668,0 -0.92532,-0.0701 -0.59698,-0.156 z m -163.365369,-1.17148 -3.80132,-0.40236 -0.54838,-2.76266 c -0.73241,-3.6897 -0.70933,-3.96281 0.46606,-5.51623 1.12883,-1.49193 1.27271,-2.25138 0.54146,-2.85828 -0.27029,-0.22431 -0.41198,-0.61488 -0.31486,-0.86793 0.26558,-0.69215 -0.4971,-1.87794 -1.20787,-1.87794 -0.45792,0 -0.68093,-0.34077 -0.83191,-1.27112 -0.23369,-1.44008 0.0381,-1.86639 1.1914,-1.86832 1.08828,-9.5e-4 9.88886,1.026 10.03483,1.17198 0.064,0.064 0.28186,1.56913 0.484,3.34461 0.20216,1.77546 0.43571,3.54668 0.51904,3.93605 0.14535,0.6791 0.0762,0.69425 -1.70114,0.37211 -2.34411,-0.42491 -2.90624,-0.0387 -2.90624,1.99657 0,1.24135 0.17882,1.61498 1.20344,2.51462 0.6619,0.58115 1.81321,1.36772 2.55848,1.74792 1.20125,0.61283 1.35503,0.83102 1.35503,1.92226 v 1.23098 l -1.62036,-0.20495 c -0.8912,-0.11269 -3.33096,-0.38602 -5.42166,-0.60731 z m 154.503059,0.17715 c 0.11337,-0.11334 0.40759,-0.12545 0.65385,-0.0269 0.27212,0.10896 0.19129,0.18976 -0.2061,0.2061 -0.35962,0.0149 -0.5611,-0.066 -0.44775,-0.17915 z m -81.855739,-0.54014 c 0.10894,-0.27212 0.18973,-0.19129 0.20609,0.20612 0.0149,0.35959 -0.066,0.56107 -0.17917,0.44772 -0.11331,-0.11335 -0.12544,-0.40758 -0.0269,-0.65384 z m 98.030199,-0.15719 c -0.12161,-0.12158 0.61123,-0.7418 1.62857,-1.37816 1.67281,-1.04635 1.90504,-1.34328 2.42835,-3.10486 l 0.57866,-1.94787 0.4496,1.0234 c 0.24728,0.56284 0.45652,1.72321 0.46499,2.57854 0.0156,1.5752 -0.41872,2.48086 -1.34915,2.81337 -0.73996,0.26446 -3.94027,0.27632 -4.20102,0.0156 z m -18.53192,-0.46876 c -6.22146,-1.27609 -11.98493,-3.30919 -13.13554,-4.63365 -1.93468,-2.22702 -4.25895,-15.49723 -3.36617,-19.2188 0.22784,-0.94976 0.55694,-1.81501 0.73131,-1.92279 1.03116,-0.63726 5.4929,3.55368 6.12328,5.75164 0.17256,0.60169 0.31374,3.27895 0.31374,5.94948 0,5.71764 -0.64705,4.87649 6.1374,7.97829 4.84616,2.21564 9.96031,3.71557 12.66856,3.71557 1.49449,0 1.66244,0.0774 1.66713,0.76754 0.003,0.42216 0.15225,0.9978 0.33195,1.27924 0.26351,0.41268 0.0811,0.55183 -0.94334,0.71913 -2.77586,0.4534 -7.23382,0.29009 -10.52832,-0.38565 z m -53.04168,0.093 c -0.42432,-0.54105 -0.41225,-0.55311 0.12881,-0.1288 0.32834,0.2575 0.59698,0.52615 0.59698,0.59697 0,0.28077 -0.28014,0.10002 -0.72579,-0.46817 z m 42.09503,0.0497 c 0.11334,-0.11334 0.40759,-0.12545 0.65384,-0.0269 0.27213,0.10896 0.19131,0.18975 -0.2061,0.2061 -0.35961,0.0149 -0.56109,-0.0659 -0.44774,-0.17916 z m 108.55288,-5.59311 c -0.91085,-1.5948 -2.12664,-3.41136 -2.70177,-4.03683 -1.0283,-1.11832 -6.78673,-5.17372 -7.34639,-5.17372 -0.15742,0 -0.74621,-0.81504 -1.30842,-1.81123 -1.04409,-1.85003 -2.78557,-3.60267 -4.70501,-4.73516 -0.91945,-0.5425 -1.13509,-0.9418 -1.48939,-2.75791 -0.56436,-2.89282 -1.01084,-3.31753 -3.48741,-3.31753 -2.47204,0 -4.37088,0.7227 -4.37088,1.66356 0,0.37124 0.15834,1.8134 0.35187,3.20482 0.312,2.24317 0.27588,2.70711 -0.31872,4.09425 -0.36883,0.86044 -0.97532,1.72753 -1.34776,1.92684 -0.64765,0.34662 -0.65588,0.31974 -0.18888,-0.61638 0.62111,-1.24505 1.13827,-5.2023 1.15183,-8.81376 l 0.0106,-2.8048 1.79094,-0.50491 c 2.1605,-0.6091 7.37796,-1.37516 7.63247,-1.12064 0.10018,0.10011 0.40846,1.17432 0.68507,2.38703 0.64356,2.82134 1.57155,3.7713 3.65338,3.73983 3.11324,-0.047 5.5126,-2.21975 6.97143,-6.31287 0.31794,-0.89207 0.68823,-1.58284 0.82285,-1.53508 0.13462,0.0478 1.48278,0.9938 2.9959,2.10235 3.78506,2.77299 7.69425,6.9191 8.23945,8.73881 0.88561,2.95587 -1.15919,14.16035 -3.47655,19.04984 l -1.07214,2.26217 -0.41815,-1.36455 c -0.22999,-0.75047 -1.1634,-2.66934 -2.07425,-4.26413 z m -84.57199,4.00182 c -0.41854,-1.69444 -0.12938,-1.9306 2.73897,-2.23709 1.79679,-0.192 2.72162,-0.49893 3.89085,-1.29136 2.29628,-1.5563 2.54482,-1.68412 2.18348,-1.12306 -0.1697,0.26353 -0.46206,1.08359 -0.64968,1.8224 -0.31443,1.23806 -0.56507,1.45988 -3.20091,2.8326 -3.53075,1.83879 -4.50779,1.83808 -4.96271,-0.004 z m -85.52716,-1.0223 c -2.89109,-0.84486 -4.37459,-1.47843 -5.446639,-2.32615 l -1.47337,-1.16505 1.18252,-0.17122 c 0.980239,-0.14193 1.177109,-0.30935 1.151069,-0.97876 -0.03,-0.76919 0.0511,-0.79932 1.70563,-0.63418 3.36713,0.33607 4.43216,-0.71305 2.90339,-2.86002 -0.67649,-0.95003 -0.68811,-1.02641 -0.10894,-0.71615 0.86469,0.46319 2.07605,1.65583 3.65018,3.59389 0.71292,0.87772 1.55722,1.59821 1.87621,1.60109 0.48286,0.004 0.49742,0.0575 0.0871,0.31716 -0.42224,0.26713 -0.40103,0.48281 0.14771,1.50174 0.55977,1.03946 0.58806,1.36564 0.22378,2.58152 -0.39886,1.33123 -0.44978,1.37054 -1.17111,0.90447 -0.41477,-0.26798 -2.54213,-1.00974 -4.72743,-1.64834 z m 18.9277,0.3465 c 0.0947,-0.23451 0.17206,-0.0426 0.17206,0.42643 0,0.46905 -0.0775,0.66094 -0.17206,0.42641 -0.0946,-0.23452 -0.0946,-0.6183 0,-0.85284 z m 40.09475,0.17057 c -0.42433,-0.54105 -0.41226,-0.55311 0.1288,-0.1288 0.56824,0.44567 0.74896,0.72579 0.46819,0.72579 -0.0708,0 -0.33948,-0.26864 -0.59697,-0.59699 z m 74.66595,0.03 c 0.23453,-0.0947 0.6183,-0.0947 0.85283,0 0.23453,0.0947 0.0426,0.17206 -0.42641,0.17206 -0.46906,0 -0.66094,-0.0775 -0.42642,-0.17206 z m -40.50932,-0.244 c 0,-0.0708 0.26862,-0.33948 0.59699,-0.59698 0.54104,-0.42432 0.5531,-0.41226 0.12879,0.1288 -0.44564,0.56824 -0.72578,0.74896 -0.72578,0.4682 z m -64.7068,-0.61738 c 0.10895,-0.27215 0.18972,-0.19131 0.20609,0.20609 0.0149,0.35961 -0.066,0.5611 -0.17917,0.44774 -0.11335,-0.11332 -0.12546,-0.4076 -0.0269,-0.65383 z m 103.34465,-0.49318 c -2.8927,-1.80459 -2.55212,-7.02551 0.93746,-14.37062 1.91404,-4.02881 4.8024,-8.54903 6.64629,-10.40133 1.76778,-1.77586 1.83413,-1.7481 2.38567,0.99811 0.33398,1.66297 -0.4358,7.55664 -1.2687,9.7135 -0.7229,1.87201 -0.82097,1.96489 -3.40605,3.22525 -3.34867,1.63268 -4.38606,2.68103 -4.60885,4.6576 -0.1926,1.70873 0.34375,2.99441 2.19367,5.25842 1.15133,1.40905 1.15515,1.42496 0.37606,1.5652 -1.04912,0.18883 -2.3221,-0.0638 -3.25555,-0.64613 z m -180.688499,0.23144 c -1.746,-0.89017 -4.72739,-1.48176 -6.46512,-1.28285 -0.77623,0.0889 -3.8675,-0.0568 -6.86945,-0.32341 l -5.4581,-0.48496 -1.41282,-1.52064 c -0.77706,-0.83635 -1.71349,-1.52065 -2.08096,-1.52065 -0.6018,0 -0.7123,-0.4077 -1.11282,-4.10586 -0.24457,-2.25821 -0.55129,-4.17173 -0.6816,-4.25226 -0.13028,-0.0805 -2.02806,-0.32802 -4.21724,-0.54995 l -3.98034,-0.40353 1.96705,-2.09944 c 1.08187,-1.15468 2.65784,-2.99394 3.50214,-4.08726 2.37292,-3.07272 4.50603,-4.81581 6.87054,-5.61432 2.34578,-0.79218 5.59441,-3.07235 6.16664,-4.32827 0.37276,-0.81812 0.38991,-0.80752 1.31529,0.81276 0.86152,1.50843 1.30404,1.83387 5.4523,4.00964 5.53672,2.90406 6.54228,3.82876 7.48646,6.88458 1.27929,4.14047 1.48,6.32689 1.20603,13.13692 -0.14153,3.51791 -0.28501,6.39621 -0.31879,6.39621 -0.0337,0 -0.64994,-0.30002 -1.36921,-0.66671 z m -7.61352,-0.56277 c 0.11333,-0.11334 0.40758,-0.12546 0.65383,-0.0269 0.27212,0.10895 0.19129,0.18975 -0.2061,0.20611 -0.35961,0.0149 -0.56109,-0.0658 -0.44773,-0.17915 z m -1.88334,-0.02 c 0.23454,-0.0946 0.61832,-0.0946 0.85283,0 0.23454,0.0947 0.0427,0.17206 -0.4264,0.17206 -0.46905,0 -0.66094,-0.0775 -0.42643,-0.17206 z m 194.274809,-1.39425 c -1.54583,-1.98781 -1.54708,-1.97001 0.21542,-3.06564 1.13669,-0.70661 2.056,-1.68408 2.95742,-3.14447 1.10259,-1.78633 1.63249,-2.28145 3.37406,-3.15244 1.13632,-0.56831 2.2963,-1.21663 2.57773,-1.44073 0.42197,-0.336 0.82094,-0.0911 2.27536,1.39579 l 1.76365,1.80324 -4.4927,3.47114 c -2.47099,1.90912 -5.02999,3.89983 -5.68667,4.42379 -0.65667,0.52395 -1.37294,0.96072 -1.59171,0.97059 -0.21876,0.0107 -0.84541,-0.5577 -1.39256,-1.26127 z m -57.83536,0.61546 c -2.9422,-0.75247 -6.23013,-2.02385 -10.5263,-4.07026 l -2.94913,-1.40477 -0.13319,-5.3736 c -0.1092,-4.40645 -0.24719,-5.58696 -0.76659,-6.55922 -0.75974,-1.42216 -3.98424,-4.64155 -4.95868,-4.95082 -0.38202,-0.1212 -0.69456,-0.3511 -0.69456,-0.51075 0,-0.46307 2.14831,-1.66481 4.29867,-2.40466 1.08885,-0.3746 2.29753,-0.97968 2.68596,-1.34458 0.70514,-0.66245 0.7075,-0.66109 1.52379,0.87764 1.1236,2.11801 3.16514,3.29238 5.80896,3.34158 2.75589,0.0514 3.51798,-0.64613 3.36324,-3.0778 -0.10679,-1.67884 -0.0787,-1.74717 0.56989,-1.38536 0.37526,0.20931 1.43581,0.46314 2.35679,0.56407 l 1.67451,0.18351 0.9978,3.21437 c 0.9445,3.04276 1.12376,3.33961 3.35716,5.55976 l 2.35938,2.34538 v 2.12848 c 0,1.64791 -0.38511,3.27804 -1.70567,7.21988 -0.93809,2.80025 -1.70564,5.36578 -1.70564,5.70115 0,0.8367 -2.1557,0.81575 -5.55639,-0.054 z M 42.514131,222.1569 c 0.11332,-0.11333 0.40758,-0.12545 0.65383,-0.0269 0.27213,0.10895 0.1913,0.18973 -0.20611,0.2061 -0.3596,0.0149 -0.56107,-0.0659 -0.44772,-0.17917 z m 90.074339,-0.88122 c 0.10895,-0.27215 0.18972,-0.1913 0.20608,0.20609 0.0149,0.35962 -0.066,0.56111 -0.17917,0.44774 -0.11334,-0.11332 -0.12545,-0.40758 -0.0269,-0.65383 z m -93.485659,0.54012 c 0.11333,-0.11333 0.40759,-0.12545 0.65383,-0.0269 0.27214,0.10896 0.19133,0.18974 -0.20609,0.20611 -0.35959,0.0149 -0.56108,-0.0659 -0.44774,-0.17918 z m 85.298499,-1.22238 c 0.10895,-0.27213 0.18973,-0.19129 0.20611,0.20611 0.0149,0.3596 -0.0658,0.56108 -0.17919,0.44773 -0.11332,-0.11335 -0.12544,-0.40759 -0.0269,-0.65384 z m 68.91265,-1.72698 c 0.17505,-1.17264 0.49004,-2.89961 0.69997,-3.83771 0.3604,-1.61045 0.44787,-1.71195 1.56664,-1.81824 1.70835,-0.16233 4.01614,0.24539 4.57987,0.80912 0.26696,0.26698 0.43077,0.75675 0.36401,1.08838 -0.0667,0.33165 -0.21357,1.17866 -0.32622,1.88223 -0.11266,0.70358 -0.38976,1.27971 -0.61579,1.28028 -0.22603,6.7e-4 -1.40876,0.60916 -2.62831,1.35246 -1.21954,0.7433 -2.60909,1.35688 -3.08789,1.36351 l -0.87053,0.0115 0.31825,-2.13207 z m -31.24274,0.45698 c -0.45891,-1.77103 -0.13593,-1.89831 0.47883,-0.18872 0.34469,0.95855 0.41565,1.50739 0.18494,1.43049 -0.20588,-0.0685 -0.50457,-0.62744 -0.66377,-1.24177 z m 72.1666,-1.8215 c 0.0813,-0.42215 0.14783,-0.0767 0.14783,0.76754 0,0.84429 -0.0665,1.1897 -0.14783,0.76754 -0.0813,-0.42214 -0.0813,-1.11294 0,-1.53508 z m -100.28484,1.38585 c 0.10893,-0.27214 0.18973,-0.19131 0.20609,0.20609 0.0149,0.35961 -0.066,0.56109 -0.17916,0.44773 -0.11332,-0.11333 -0.12545,-0.40759 -0.0269,-0.65382 z m -36.609129,-0.4276 c 0,-0.45799 0.13134,-0.91388 0.29185,-1.01308 0.16053,-0.0991 0.22181,0.18605 0.13619,0.6339 -0.12311,0.64432 0.0115,0.84608 0.64627,0.96661 0.73013,0.13871 0.71792,0.1565 -0.1362,0.1988 -0.77987,0.0385 -0.93811,-0.094 -0.93811,-0.78623 z m -78.93121,-0.45326 c -0.42443,-0.82072 -0.4239,-1.09863 0.004,-2.11645 0.57648,-1.37107 0.44908,-1.23083 1.3768,-1.51564 0.61157,-0.18776 0.7094,-0.11269 0.56633,0.43444 -0.0952,0.36378 -6.9e-4,0.98347 0.21008,1.37714 0.31362,0.58602 0.24575,0.90145 -0.37461,1.74054 -0.93472,1.26427 -1.16493,1.2746 -1.78269,0.0799 z m 80.38812,0.0565 c 0.11334,-0.11333 0.4076,-0.12544 0.65384,-0.0269 0.27213,0.10894 0.19129,0.18973 -0.2061,0.20608 -0.35962,0.0149 -0.56109,-0.0658 -0.44774,-0.17916 z m -40.23067,-0.90258 c 0.0947,-0.23452 0.17208,-0.0426 0.17208,0.42641 0,0.46906 -0.0774,0.66095 -0.17208,0.42641 -0.0947,-0.23452 -0.0947,-0.61828 0,-0.85282 z M 191.6397,216.81967 c 0.24748,-0.60977 0.54167,-1.33893 0.65371,-1.62037 0.11206,-0.28142 0.10987,0.1024 -0.005,0.85283 -0.16983,1.11081 -0.56912,1.83546 -1.03092,1.87099 -0.0373,0.003 0.13461,-0.49367 0.38209,-1.10345 z m -90.28756,0.54162 c 0.23454,-0.0946 0.6183,-0.0946 0.85282,0 0.23453,0.0947 0.0427,0.17206 -0.42641,0.17206 -0.46905,0 -0.66094,-0.0775 -0.42641,-0.17206 z M 17.286141,216.841 c 0.10895,-0.27213 0.18971,-0.1913 0.20609,0.2061 0.0149,0.3596 -0.0659,0.56108 -0.17915,0.44773 -0.11334,-0.11334 -0.12546,-0.40758 -0.0269,-0.65383 z M 240.646,216.01742 c 0.45417,-0.48666 1.28628,-1.2041 1.84914,-1.59433 l 1.0234,-0.70948 -0.84017,0.99868 c -1.1279,1.34072 -2.50821,2.53986 -2.7013,2.34678 -0.0862,-0.0863 0.21477,-0.55499 0.66893,-1.04165 z m -107.72464,-0.55831 c 0.0816,-0.42434 0.15144,-0.15748 0.15523,0.59302 0.004,0.75048 -0.063,1.09767 -0.14835,0.77151 -0.0853,-0.32615 -0.0885,-0.94019 -0.007,-1.36453 z m -33.729539,0.76653 c -0.59045,-0.003 -0.76699,-0.31459 -1.04481,-1.84736 l -0.33431,-1.8444 2.0256,-0.39851 c 1.114069,-0.21918 2.139009,-0.27188 2.277679,-0.11706 0.13863,0.15475 0.4237,0.99081 0.63344,1.85784 0.20976,0.86705 0.48669,1.85092 0.61541,2.18638 0.21297,0.55497 0.0676,0.58995 -1.61422,0.38802 -1.01656,-0.1221 -2.167999,-0.22325 -2.558789,-0.22488 z m 159.171139,-1.32199 c 0.004,-0.43589 0.0681,-0.45802 0.29399,-0.10154 0.15882,0.25055 0.42128,0.43092 0.58323,0.40082 0.16195,-0.0301 0.34544,0.0983 0.40775,0.28515 0.0629,0.18873 -0.19877,0.25826 -0.58845,0.15637 -0.38596,-0.10093 -0.69939,-0.43426 -0.69652,-0.74071 z m -18.76743,0.84909 c 0,-0.0708 0.26864,-0.33947 0.59698,-0.59696 0.54105,-0.42434 0.55312,-0.41227 0.1288,0.1288 -0.44564,0.56823 -0.72578,0.74894 -0.72578,0.46818 z m -78.35206,-0.61742 c 0.10896,-0.27213 0.18972,-0.1913 0.2061,0.2061 0.0149,0.35961 -0.066,0.56111 -0.17918,0.44774 -0.11333,-0.11334 -0.12544,-0.40759 -0.0269,-0.65384 z m 39.91945,-0.70357 c 0.0946,-0.23454 0.17207,-0.0426 0.17207,0.42641 0,0.46905 -0.0775,0.66094 -0.17207,0.4264 -0.0947,-0.23453 -0.0947,-0.6183 0,-0.85281 z m -67.54396,-0.34114 c 0.0947,-0.23454 0.17206,-0.0426 0.17206,0.42641 0,0.46905 -0.0775,0.66095 -0.17206,0.42641 -0.0946,-0.23451 -0.0946,-0.61831 0,-0.85282 z m 0.65796,-3.06117 c 0.0721,-0.80234 0.13204,-0.23075 0.13327,1.27022 9.7e-4,1.50098 -0.0577,2.15745 -0.131,1.45883 -0.0732,-0.69862 -0.0744,-1.92669 -0.003,-2.72905 z m 127.49213,3.35878 c 0,-0.0708 0.26864,-0.33947 0.59698,-0.59697 0.54105,-0.42433 0.55312,-0.41225 0.1288,0.1288 -0.44564,0.56825 -0.72577,0.74895 -0.72577,0.46819 z m -4.30745,-1.04803 c -1.29378,-0.64725 -2.98182,-1.71563 -3.75121,-2.37421 -1.34049,-1.1474 -2.48425,-3.07632 -2.06985,-3.49072 0.1085,-0.10855 1.176,0.15376 2.37223,0.58278 2.32694,0.83452 3.50766,0.72591 3.23989,-0.29803 -0.10438,-0.39917 0.11523,-0.73782 0.63867,-0.98485 0.72602,-0.34262 0.9667,-0.19399 2.67665,1.65295 2.37009,2.55998 2.5738,3.28851 1.36327,4.87559 -0.50899,0.66732 -1.19361,1.21332 -1.52138,1.21332 -0.32777,0 -1.65449,-0.52956 -2.94827,-1.17683 z M 18.542571,212.81137 c 0,-0.37525 0.15351,-0.68226 0.34111,-0.68226 0.18763,0 0.34114,0.30701 0.34114,0.68226 0,0.37523 -0.15351,0.68225 -0.34114,0.68225 -0.1876,0 -0.34111,-0.30702 -0.34111,-0.68225 z m 224.805399,-0.15044 c 0,-0.0827 0.15351,-0.24531 0.34113,-0.36127 0.18762,-0.1159 0.34113,-0.0482 0.34113,0.15046 0,0.19868 -0.15351,0.36125 -0.34113,0.36125 -0.18762,0 -0.34113,-0.0678 -0.34113,-0.15044 z m -49.97571,-3.78594 v -3.25411 l -1.97222,-1.72995 c -2.18175,-1.91372 -2.79353,-2.89414 -3.69341,-5.91877 l -0.60896,-2.04679 1.38776,1.5351 c 2.17953,2.4109 3.98107,5.248 6.27193,9.87706 l 2.11806,4.27986 -1.58103,0.20228 c -0.86953,0.11127 -1.65776,0.22636 -1.75157,0.25583 -0.0937,0.0297 -0.17056,-1.41075 -0.17056,-3.20051 z m -174.721609,1.14336 c 0.10895,-0.27214 0.18975,-0.19129 0.20611,0.20609 0.0149,0.35963 -0.0659,0.56111 -0.17916,0.44775 -0.11335,-0.11333 -0.12545,-0.40759 -0.0269,-0.65384 z m 264.376629,-0.68226 c 0.1089,-0.27212 0.18973,-0.19129 0.2061,0.20611 0.0148,0.35961 -0.0658,0.56109 -0.17917,0.44773 -0.11336,-0.11333 -0.12548,-0.40759 -0.0269,-0.65384 z m -256.887439,0.19898 c 0.11331,-0.11332 0.40757,-0.12545 0.65383,-0.0269 0.27212,0.10896 0.1913,0.18972 -0.20612,0.2061 -0.35959,0.0149 -0.56108,-0.066 -0.44771,-0.17918 z m 227.514269,-2.818 c -0.10191,-0.30574 0.0755,-0.30525 0.74998,0.003 0.48591,0.2214 0.88347,0.52647 0.88347,0.67792 0,0.40461 -1.47685,-0.21016 -1.63345,-0.67996 z m -0.55635,-2.38231 -1.48883,0.11888 -0.21612,-1.83915 c -0.11886,-1.01153 -0.13224,-1.92302 -0.0297,-2.02553 0.38352,-0.38353 4.18018,-0.47254 4.40835,-0.10337 0.12638,0.2045 0.43548,1.45131 0.68688,2.77067 l 0.45708,2.39887 -1.16441,-0.71965 c -0.84031,-0.51936 -1.57879,-0.68655 -2.65323,-0.60076 z m -4.51762,-1.16034 c 0.0947,-0.23453 0.17207,-0.0427 0.17207,0.42642 0,0.46904 -0.0774,0.66093 -0.17207,0.42639 -0.0947,-0.23452 -0.0947,-0.61829 0,-0.85281 z m -82.37132,-0.85284 c -0.42433,-0.54104 -0.41226,-0.55312 0.1288,-0.1288 0.56824,0.44565 0.74895,0.72578 0.46819,0.72578 -0.0708,0 -0.33948,-0.26863 -0.59697,-0.59698 z m 81.32708,-2.89961 c 0.0757,-0.60977 0.13759,-0.11088 0.13759,1.10868 0,1.21954 -0.0619,1.71844 -0.13759,1.10867 -0.0757,-0.60977 -0.0757,-1.60758 0,-2.21735 z m 15.34893,1.92596 c 0.11336,-0.11332 0.40758,-0.12543 0.65384,-0.0269 0.27213,0.10895 0.1913,0.18972 -0.2061,0.2061 -0.35961,0.0149 -0.56109,-0.066 -0.44774,-0.17918 z m -134.49804,-0.64672 c -0.44065,-0.46905 -0.72444,-0.85282 -0.63062,-0.85282 0.0939,0 0.53108,0.38377 0.97176,0.85282 0.44065,0.46906 0.72441,0.85284 0.63061,0.85284 -0.0939,0 -0.5311,-0.38378 -0.97175,-0.85284 z m -15.9408,0.30559 c 0.11335,-0.11332 0.4076,-0.12544 0.65385,-0.0269 0.27214,0.10895 0.1913,0.18975 -0.20609,0.2061 -0.35961,0.0149 -0.56108,-0.0658 -0.44776,-0.17917 z m 149.28828,-1.02977 c -0.21905,-0.26392 -0.58897,-1.30025 -0.82205,-2.30295 l -0.42379,-1.82307 3.00849,-0.21354 c 1.65467,-0.11745 3.61277,-0.42173 4.35134,-0.67619 l 1.34284,-0.46265 -0.71058,1.70985 c -1.47466,3.54843 -5.20126,5.63017 -6.74625,3.76855 z m -150.49581,0.32985 c 0.23096,-0.0934 0.69147,-0.0991 1.02339,-0.0129 0.33191,0.0865 0.14293,0.16294 -0.41992,0.16989 -0.56287,0.007 -0.83443,-0.0637 -0.60347,-0.15726 z m -4.34295,-1.26957 c 0,-0.0708 0.21661,-0.30854 0.48133,-0.52824 0.36858,-0.3059 0.54077,-0.30333 0.73498,0.0107 0.15504,0.25086 0.10972,0.32144 -0.11667,0.18155 -0.20366,-0.12583 -0.46671,-0.0729 -0.58455,0.11785 -0.21089,0.34123 -0.51513,0.46994 -0.51513,0.2179 z m 1.98936,-0.81557 c -0.29049,-0.29048 -0.0755,-0.29238 0.85256,-0.007 1.67022,0.51262 3.74771,-0.12132 5.07326,-1.54804 0.98261,-1.0576 1.00271,-1.063 0.89443,-0.24078 -0.0663,0.5034 -0.59013,1.1661 -1.30471,1.65056 -0.99941,0.67755 -1.51444,0.78703 -3.16055,0.67185 -1.08161,-0.0756 -2.14137,-0.3124 -2.35499,-0.52603 z m 134.4631,-0.19011 c 0,-0.0612 0.42215,-0.48326 0.93811,-0.93811 l 0.93811,-0.82702 -0.82701,0.93812 c -0.77296,0.8768 -1.04921,1.09455 -1.04921,0.82701 z m -68.36923,-0.75152 c -1.47979,-0.70221 -2.92717,-3.13458 -2.92717,-4.91922 v -1.26117 l 2.10822,1.01186 c 1.15953,0.5565 2.75582,1.08483 3.54732,1.17403 1.27632,0.14387 1.46232,0.27823 1.64423,1.18778 0.36127,1.80634 0.22743,2.93954 -0.39186,3.318 -0.74046,0.45254 -2.3984,0.23959 -3.98074,-0.51128 z m -1.9473,-0.41663 c -0.42432,-0.54105 -0.41225,-0.55311 0.12881,-0.12881 0.56823,0.44564 0.74893,0.72579 0.46816,0.72579 -0.0708,0 -0.33947,-0.26864 -0.59697,-0.597 z m 74.75124,-0.0852 c 0,-0.18762 0.16256,-0.34112 0.36126,-0.34112 0.1987,0 0.26639,0.1535 0.15043,0.34112 -0.11596,0.18763 -0.27852,0.34113 -0.36126,0.34113 -0.0827,0 -0.15043,-0.1535 -0.15043,-0.34113 z m -134.06455,-0.12883 c 0,-0.0708 0.26866,-0.33948 0.59699,-0.59697 0.54106,-0.42433 0.55311,-0.41227 0.12881,0.12879 -0.44564,0.56824 -0.7258,0.74896 -0.7258,0.46818 z m 142.68521,-1.44188 c 0.11336,-0.11333 0.40758,-0.12545 0.65384,-0.0269 0.27213,0.10895 0.1913,0.18973 -0.2061,0.2061 -0.35961,0.0149 -0.56109,-0.0658 -0.44774,-0.17918 z m -7.59727,-0.18076 c 1.41316,-0.56938 4.41312,-1.03146 4.86466,-0.74929 0.48396,0.30245 -2.65904,1.05024 -4.52353,1.07625 -1.13392,0.0158 -1.15107,-6.7e-4 -0.34113,-0.32696 z m 15.10216,-0.16038 c 0.11335,-0.11331 0.40758,-0.12543 0.65383,-0.0269 0.27213,0.10896 0.1913,0.18975 -0.2061,0.20612 -0.35961,0.0149 -0.56109,-0.0658 -0.44773,-0.17917 z m -79.66773,-0.0177 c 0.23097,-0.0934 0.69149,-0.0991 1.0234,-0.0129 0.33191,0.0865 0.14295,0.16295 -0.41993,0.16989 -0.56286,0.007 -0.83441,-0.0637 -0.60347,-0.15726 z m 81.47553,-0.41973 c -0.10277,-0.16629 0.1501,-0.39048 0.56195,-0.49817 0.85964,-0.22479 1.11463,-0.0843 0.79263,0.43669 -0.27267,0.44119 -1.09679,0.4786 -1.35458,0.0616 z m -98.3285,-6.34971 c -0.3102,-1.87621 -0.57069,-4.63937 -0.57888,-6.14035 -0.013,-2.34164 0.12184,-2.99542 0.94866,-4.60528 1.26086,-2.45512 3.06486,-4.65179 4.37796,-5.3308 2.64291,-1.36672 7.8448,-0.22985 8.97836,1.96221 0.32023,0.61925 0.94822,1.41382 1.39556,1.76568 1.45717,1.14622 1.93106,2.52264 1.7203,4.99669 -0.10475,1.22919 -0.34019,2.61866 -0.52328,3.08772 -0.24161,0.61899 -0.28269,0.14465 -0.14989,-1.72998 0.22068,-3.11529 -0.11306,-3.88636 -2.06588,-4.77302 -2.10963,-0.95785 -3.30624,-0.83744 -5.2988,0.5332 -0.95464,0.65669 -2.12319,1.19397 -2.59676,1.19397 -0.47359,0 -1.16808,0.30701 -1.54331,0.68224 -0.37524,0.37525 -1.06311,0.68228 -1.52859,0.68228 -0.61614,0 -0.90401,0.2298 -1.05839,0.84485 -0.30335,1.20871 0.0177,3.46465 0.80212,5.63664 0.37268,1.03193 0.56832,2.02973 0.43477,2.21734 -0.13356,0.18763 -0.43591,1.238 -0.67184,2.33416 -0.24199,1.1241 -0.74991,2.31391 -1.16505,2.72904 l -0.73603,0.73604 -0.0885,-1.70566 c -0.0486,-0.93811 -0.34231,-3.24074 -0.65252,-5.11697 z m 100.24663,5.44908 c 0.10503,-0.10508 0.29578,0.0843 0.42388,0.42072 0.18513,0.48618 0.14595,0.52536 -0.19096,0.19097 -0.23314,-0.2314 -0.33795,-0.50665 -0.23292,-0.61169 z m -7.22963,0.1676 c 0,-0.56397 0.11205,-0.63015 0.59698,-0.35256 1.58449,0.90696 1.648,1.03624 0.51169,1.04159 -0.88935,0.004 -1.10867,-0.13212 -1.10867,-0.68903 z m -224.967999,0.29469 c -0.99252,-0.45225 -3.58985,-5.26369 -3.58985,-6.65007 0,-0.45665 -0.2158,-1.24754 -0.47952,-1.75756 -0.53708,-1.03858 -0.34761,-2.75708 0.33277,-3.01817 0.2449,-0.094 2.25859,0.75852 4.47486,1.89444 2.21627,1.13594 4.29824,2.14168 4.62657,2.23499 1.02571,0.29147 0.80406,3.14228 -0.39082,5.02639 -1.60532,2.53132 -3.00173,3.1686 -4.97401,2.26998 z m 227.321079,-1.39583 c -0.63752,-0.42463 -1.45201,-1.36995 -1.80997,-2.10073 -0.60664,-1.23842 -0.62402,-1.63031 -0.25592,-5.76922 0.26094,-2.93392 0.58085,-4.72428 0.9429,-5.27685 0.51294,-0.78283 0.69282,-0.82517 2.8144,-0.66262 1.24653,0.0954 3.15843,0.51326 4.24864,0.92833 2.5129,0.95673 2.94854,1.82222 2.10743,4.18696 -0.32675,0.91859 -0.52447,2.27386 -0.45648,3.12876 0.099,1.24467 -0.0893,1.85412 -1.07764,3.48797 -0.65868,1.08887 -1.57989,2.17319 -2.04712,2.40959 -1.31792,0.66678 -3.17364,0.52877 -4.46624,-0.33219 z m -1.71434,-0.16607 c -0.42432,-0.54104 -0.41225,-0.5531 0.12881,-0.1288 0.32833,0.25751 0.59698,0.52615 0.59698,0.59699 0,0.28075 -0.28014,0.10001 -0.72578,-0.4682 z m -90.24132,-0.80275 c 0.26734,-0.71324 0.43402,-0.87367 0.51092,-0.49177 0.14538,0.72205 -0.16744,1.55038 -0.58549,1.55038 -0.18617,0 -0.15467,-0.44695 0.0745,-1.05861 z m 4.66092,-0.45084 c -2.09177,-0.89168 -3.2671,-2.27224 -3.61185,-4.24262 -0.1194,-0.68263 -0.4302,-1.58111 -0.69057,-1.99667 -0.26039,-0.41554 -0.46727,-1.10634 -0.45976,-1.53509 0.0131,-0.74453 0.0366,-0.73741 0.5226,0.15857 0.30121,0.55521 0.79584,0.93811 1.21183,0.93811 0.64158,0 0.69269,-0.1705 0.58609,-1.95504 l -0.11682,-1.95504 1.22072,-0.19911 c 0.67142,-0.10945 1.92799,-0.707 2.79242,-1.32776 1.32254,-0.94979 1.76052,-1.09327 2.76321,-0.90516 0.65534,0.12287 1.54219,0.50749 1.97078,0.85453 0.76649,0.62066 0.77308,0.68611 0.40224,3.99739 -0.37454,3.34433 -1.30966,6.63783 -2.32432,8.1864 -0.67651,1.03251 -1.81259,1.02756 -4.26658,-0.0184 z M 44.345151,187.36984 c 0.12454,-1.05972 0.0505,-2.03 -0.18909,-2.47767 -0.40163,-0.75045 -1.5328,-0.99676 -1.89394,-0.41243 -0.10996,0.17786 -0.86996,-0.1288 -1.68901,-0.68162 -2.85358,-1.92587 -6.73485,-3.55796 -8.46953,-3.56151 -0.89063,-9.4e-4 -1.6198,-0.10656 -1.62039,-0.23296 -0.003,-0.60261 1.99542,-2.49332 3.2256,-3.05211 1.98515,-0.90173 5.093,-0.84578 7.01845,0.12635 1.20236,0.60707 1.71514,1.15985 2.4525,2.64377 1.22551,2.46634 2.51032,7.08219 2.80116,10.06336 l 0.23295,2.38792 -1.0367,-1.53062 c -0.92563,-1.36661 -1.01479,-1.71725 -0.832,-3.27246 z m 2.27826,2.52176 c 0.10894,-0.27213 0.18973,-0.1913 0.2061,0.20611 0.0149,0.3596 -0.0659,0.56108 -0.17916,0.44773 -0.11335,-0.11333 -0.12546,-0.40757 -0.0269,-0.65384 z m 58.674549,-1.36452 c 0.10895,-0.27212 0.18975,-0.1913 0.2061,0.2061 0.0149,0.35961 -0.0659,0.56111 -0.17916,0.44774 -0.11333,-0.11334 -0.12545,-0.40759 -0.0269,-0.65384 z m 13.06301,-0.53302 c 0.19531,-0.82865 0.81526,-1.89203 0.81526,-1.39838 0,0.36899 -0.75172,2.33648 -0.89269,2.33648 -0.079,0 -0.0441,-0.42214 0.0774,-0.9381 z m 141.13537,-1.19394 c 0.0947,-0.23452 0.17206,-0.0426 0.17206,0.42642 0,0.46905 -0.0774,0.66094 -0.17206,0.4264 -0.0947,-0.23452 -0.0947,-0.61829 0,-0.85282 z m -155.21466,0 c 0.0947,-0.23452 0.17207,-0.0426 0.17207,0.42642 0,0.46905 -0.0775,0.66094 -0.17207,0.4264 -0.0947,-0.23452 -0.0947,-0.61829 0,-0.85282 z m -61.617559,0.0856 c -0.0982,-0.37506 -0.0392,-0.7679 0.13076,-0.87297 0.17001,-0.10508 0.30912,0.20179 0.30912,0.68192 0,1.04524 -0.19442,1.12967 -0.43988,0.19105 z m 229.521829,-2.54381 c 0.65629,-1.71846 0.48526,-3.46727 -0.44971,-4.59836 -1.19419,-1.44467 -7.35551,-2.88244 -9.76296,-2.2782 -1.00198,0.25148 -1.88001,1.42909 -2.26093,3.03236 -0.23766,1.00032 -0.26455,0.94515 -0.2963,-0.60775 -0.0637,-3.11624 1.07762,-5.27309 3.44474,-6.50971 1.10456,-0.57705 3.6807,-0.62109 6.09121,-0.10422 4.61316,0.98936 6.35861,6.20102 3.86315,11.53482 -1.01949,2.17905 -1.5029,1.8187 -0.6292,-0.46903 z m -13.07355,0.45006 c 0.0852,-0.25549 0.2398,-0.10083 0.36043,0.36041 0.14838,0.56742 0.10398,0.70061 -0.14916,0.44746 -0.19823,-0.19823 -0.2933,-0.56179 -0.21127,-0.80787 z m -141.88805,-1.41054 c 0.13381,-1.07527 0.13834,-1.07105 0.19164,0.17793 0.0301,0.70358 0.21716,1.27923 0.41587,1.27923 0.19869,0 0.2542,0.17323 0.12338,0.38494 -0.39076,0.63228 -0.88403,-0.61099 -0.73085,-1.8421 z m 0.58234,-0.50433 c -0.003,-0.70358 -0.19892,-1.66303 -0.4359,-2.13208 -1.25562,-2.48533 -8.11157,-2.0988 -11.29412,0.63673 -0.62513,0.53733 -0.64068,0.50876 -0.43532,-0.79929 0.4337,-2.7626 2.12195,-3.99007 5.79206,-4.21127 4.1216,-0.24843 6.31008,1.14884 7.53719,4.81217 0.78765,2.35138 0.72365,2.97299 -0.30605,2.97299 -0.75718,0 -0.85339,-0.1435 -0.85786,-1.27925 z m 48.21971,-0.17056 c 0.0947,-0.23453 0.17207,-0.0426 0.17207,0.42641 0,0.46905 -0.0775,0.66095 -0.17207,0.42641 -0.0946,-0.23454 -0.0946,-0.6183 0,-0.85282 z m -0.007,-2.36661 c 0.10896,-0.27213 0.18975,-0.19129 0.2061,0.2061 0.0149,0.35962 -0.0658,0.56109 -0.17916,0.44774 -0.11333,-0.11332 -0.12545,-0.4076 -0.0269,-0.65384 z m 92.45364,-0.70358 c 0.0946,-0.23453 0.17207,-0.0426 0.17207,0.42641 0,0.46907 -0.0774,0.66095 -0.17207,0.42643 -0.0947,-0.23454 -0.0947,-0.61832 0,-0.85284 z m -140.83133,-1.9615 c -0.33958,-0.37525 -0.54069,-0.68226 -0.44687,-0.68226 0.0939,0 0.44842,0.30701 0.78801,0.68226 0.3396,0.37524 0.54069,0.68225 0.44687,0.68225 -0.0939,0 -0.44842,-0.30701 -0.78801,-0.68225 z m 56.88362,-7.05777 c 0.32833,-0.0857 0.86562,-0.0857 1.19396,0 0.32832,0.0859 0.0596,0.15602 -0.59698,0.15602 -0.65669,0 -0.92533,-0.0702 -0.59698,-0.15602 z"
       id="path899"
       inkscape:connector-curvature="0" />
    <path
       style="fill:#000000;stroke-width:0.26458332"
       d=""
       id="path897"
       inkscape:connector-curvature="0" />
    <g
       id="g867"
       transform="translate(-6.8035714,24.946429)" />
  </g>
</svg>
