<?xml version="1.0" encoding="UTF-8" standalone="no"?>
<!-- Generator: Adobe Illustrator 16.0.0, SVG Export Plug-In . SVG Version: 6.00 Build 0)  -->

<svg
   xmlns:dc="http://purl.org/dc/elements/1.1/"
   xmlns:cc="http://creativecommons.org/ns#"
   xmlns:rdf="http://www.w3.org/1999/02/22-rdf-syntax-ns#"
   xmlns:svg="http://www.w3.org/2000/svg"
   xmlns="http://www.w3.org/2000/svg"
   xmlns:sodipodi="http://sodipodi.sourceforge.net/DTD/sodipodi-0.dtd"
   xmlns:inkscape="http://www.inkscape.org/namespaces/inkscape"
   version="1.1"
   id="Layer_1"
   x="0px"
   y="0px"
   width="250px"
   height="49px"
   viewBox="0 0 250 49"
   enable-background="new 0 0 250 49"
   xml:space="preserve"
   sodipodi:docname="logo.svg"
   inkscape:version="0.92.3 (2405546, 2018-03-11)"><metadata
   id="metadata31"><rdf:RDF><cc:Work
       rdf:about=""><dc:format>image/svg+xml</dc:format><dc:type
         rdf:resource="http://purl.org/dc/dcmitype/StillImage" /></cc:Work></rdf:RDF></metadata><defs
   id="defs29" /><sodipodi:namedview
   pagecolor="#ffffff"
   bordercolor="#666666"
   borderopacity="1"
   objecttolerance="10"
   gridtolerance="10"
   guidetolerance="10"
   inkscape:pageopacity="0"
   inkscape:pageshadow="2"
   inkscape:window-width="1323"
   inkscape:window-height="713"
   id="namedview27"
   showgrid="false"
   inkscape:zoom="2.736"
   inkscape:cx="148.23348"
   inkscape:cy="29.594972"
   inkscape:window-x="1323"
   inkscape:window-y="27"
   inkscape:window-maximized="1"
   inkscape:current-layer="g24" />
<g
   id="g24">
	<g
   id="g18">
		<path
   fill="#370549"
   d="M37.06,12.63c-1.876-1.037-4.004-1.556-6.384-1.556c-1.679,0-2.999,0.291-4.387,0.869    C24.9,12.523,24,13.393,23,14.552V11h-6v34h6V32.813c2,2.197,4.456,3.297,7.751,3.297c2.38,0,4.471-0.52,6.347-1.557    c1.877-1.037,3.329-2.51,4.397-4.417s1.593-4.096,1.593-6.567c0-2.471-0.539-4.652-1.606-6.545    C40.413,15.132,38.937,13.668,37.06,12.63z M35.229,29.105c-1.358,1.404-3.089,2.105-5.194,2.105    c-1.374,0-2.609-0.313-3.708-0.938c-1.099-0.625-1.968-1.518-2.609-2.678c-0.641-1.158-0.961-2.501-0.961-4.027    c0-1.525,0.32-2.868,0.961-4.027c0.641-1.16,1.51-2.052,2.609-2.678c1.098-0.625,2.334-0.938,3.708-0.938    c2.105,0,3.836,0.701,5.194,2.104c1.357,1.403,2.037,3.25,2.037,5.538S36.586,27.703,35.229,29.105z"
   id="path2" />
		<path
   fill="#370549"
   d="M66.236,12.676c-1.983-1.067-4.226-1.602-6.728-1.602c-2.471,0-4.699,0.534-6.682,1.602    c-1.984,1.068-3.532,2.548-4.646,4.439c-1.114,1.893-1.671,4.043-1.671,6.453s0.557,4.57,1.671,6.477    c1.113,1.906,2.662,3.395,4.646,4.461c1.982,1.07,4.21,1.604,6.682,1.604c2.501,0,4.744-0.533,6.728-1.604    c1.983-1.066,3.532-2.555,4.646-4.461s1.67-4.066,1.67-6.477s-0.557-4.561-1.67-6.453C69.768,15.224,68.219,13.744,66.236,12.676z     M64.726,29.105c-1.373,1.404-3.112,2.105-5.217,2.105c-2.105,0-3.837-0.701-5.194-2.105c-1.358-1.402-2.037-3.249-2.037-5.537    s0.679-4.135,2.037-5.538c1.357-1.403,3.089-2.104,5.194-2.104c2.105,0,3.845,0.701,5.217,2.104c1.373,1.403,2.06,3.25,2.06,5.538    S66.099,27.703,64.726,29.105z"
   id="path4" />
		<rect
   x="78"
   y="11"
   fill="#370549"
   width="6"
   height="25"
   id="rect6" />
		<path
   fill="#370549"
   d="M83.535,1.395c-0.702-0.626-1.571-0.938-2.608-0.938s-1.907,0.328-2.608,0.982    c-0.702,0.657-1.053,1.473-1.053,2.449s0.351,1.792,1.053,2.449C79.02,6.994,79.89,7.32,80.927,7.32    c1.068,0,1.945-0.342,2.632-1.029c0.687-0.687,1.03-1.533,1.03-2.54C84.588,2.807,84.237,2.02,83.535,1.395z"
   id="path8" />
		<path
   fill="#370549"
   d="M122.117,11.074c-1.922,0-3.677,0.358-5.264,1.075c-1.586,0.718-2.883,1.716-3.89,2.998    c-0.823-1.342-1.945-2.357-3.364-3.044c-1.419-0.686-3.043-1.029-4.874-1.029c-1.678,0-3.061,0.291-4.434,0.869    C98.917,12.523,98,13.361,97,14.461V11h-6v25h6V23.385c0-2.379,0.567-4.195,1.712-5.445c1.144-1.251,2.69-1.877,4.643-1.877    c1.769,0,3.203,0.543,4.149,1.625C108.45,18.771,109,20.38,109,22.516V36h6V23.385c0-2.348,0.361-4.156,1.521-5.424    c1.159-1.265,2.592-1.898,4.514-1.898c1.769,0,2.864,0.543,3.81,1.625c0.945,1.083,1.155,2.692,1.155,4.828V36h6V21.783    c0-3.57-0.83-6.246-2.631-8.032C127.568,11.967,125.198,11.074,122.117,11.074z"
   id="path10" />
		<path
   fill="#370549"
   d="M156.693,12.652c-1.877-1.053-4.005-1.578-6.385-1.578c-2.41,0-4.577,0.534-6.499,1.602    c-1.923,1.068-3.425,2.557-4.508,4.463c-1.083,1.907-1.625,4.051-1.625,6.43c0,2.41,0.556,4.57,1.671,6.477    c1.113,1.906,2.691,3.395,4.736,4.461c2.044,1.07,4.408,1.604,7.094,1.604c2.105,0,3.997-0.337,5.676-1.008    c1.678-0.671,3.066-1.662,4.164-2.975l-3.066-3.524c-1.738,1.77-3.951,2.655-6.636,2.655c-2.105,0-3.868-0.727-5.286-1.779    C144.61,28.426,143.732,27,143.397,25h19.177c0.061,0,0.092-1.097,0.092-1.494c0-2.5-0.527-4.606-1.58-6.514    C160.033,15.086,158.569,13.705,156.693,12.652z M143.352,21c0.274-1,1.045-2.941,2.312-4.025    c1.267-1.082,2.814-1.474,4.646-1.474c1.86,0,3.416,0.323,4.668,1.421c1.251,1.1,1.998,3.078,2.242,4.078H143.352z"
   id="path12" />
		<path
   fill="#370549"
   d="M182.024,11.074c-1.8,0-3.219,0.291-4.653,0.869c-1.435,0.58-2.371,1.435-3.371,2.563V11h-6v25h6V23.432    c0-2.381,0.549-4.203,1.77-5.471c1.221-1.265,2.854-1.898,4.958-1.898c1.861,0,3.025,0.543,4.032,1.625    c1.007,1.083,1.24,2.692,1.24,4.828V36h6V21.783c0-3.539-0.816-6.208-2.677-8.009C187.463,11.975,185.105,11.074,182.024,11.074z"
   id="path14" />
		<path
   fill="#370549"
   d="M212.597,30.389c-0.854,0.67-1.922,1.006-3.203,1.006c-1.099,0-1.941-0.313-2.521-0.938    c-0.58-0.626-0.873-1.533-0.873-2.724V16h6v-5h-6V6h-6v5h-4v5h4v11.871c0,2.686,0.875,4.729,2.34,6.132    c1.465,1.404,3.611,2.106,6.295,2.106c1.068,0,2.119-0.139,3.08-0.412c0.961-0.275,1.795-0.688,2.467-1.236L212.597,30.389z"
   id="path16" />
	</g>
	<rect
   fill="#370549"
   width="7"
   height="49"
   id="rect20" />
	<polygon
   fill="#370549"
   points="244,0 244,21 216,21 216,28 244,28 244,49 250,49 250,0  "
   id="polygon22" />
</g>
</svg>